<svg width="390" height="390" viewBox="0 0 390 390" fill="none" xmlns="http://www.w3.org/2000/svg">
<path d="M73.6787 234.476C73.6787 234.476 95.3003 285.956 132.031 313.162C168.761 340.369 218.166 341.172 256.768 312.905C295.37 284.638 294.325 226.325 320.674 179.072C347.022 131.82 345.743 77.9298 298.093 52.1586C250.442 26.3874 229.835 59.9586 172.583 62.673C115.331 65.3874 28.6415 113.201 73.6787 234.476Z" fill="#4D6C40"/>
<path opacity="0.7" d="M73.6787 234.476C73.6787 234.476 95.3003 285.956 132.031 313.162C168.761 340.369 218.166 341.172 256.768 312.905C295.37 284.638 294.325 226.325 320.674 179.072C347.022 131.82 345.743 77.9298 298.093 52.1586C250.442 26.3874 229.835 59.9586 172.583 62.673C115.331 65.3874 28.6415 113.201 73.6787 234.476Z" fill="white"/>
<path d="M93.3426 267.283C92.235 270.839 90.5736 268.187 89.6064 253.734C89.1462 246.956 88.4754 233.095 96.213 235.513C103.646 237.853 95.8698 259.069 95.8698 259.069L93.3426 267.283ZM103.795 268.476C103.795 268.476 118.045 250.926 111.766 246.308C105.238 241.504 101.369 254.834 99.5982 261.394C95.823 275.379 96.5328 278.429 98.7402 275.434L103.795 268.476ZM108.287 282.789C108.287 282.789 121.727 271.44 117.601 267.002C113.303 262.384 108.412 272.009 106.111 276.767C101.197 286.907 101.299 289.349 103.42 287.368L108.287 282.789ZM113.365 297.016C113.365 297.016 126.805 285.659 122.671 281.221C118.381 276.604 113.49 286.237 111.189 290.995C106.275 301.135 106.376 303.568 108.498 301.595L113.365 297.016ZM85.995 269.88C85.995 269.88 65.1456 261.136 62.4858 268.453C59.709 276.065 73.5852 276.034 80.379 275.894C94.8636 275.582 97.5858 274.045 94.0836 272.774L85.995 269.88ZM89.7624 281.096C89.7624 281.096 67.587 276.674 66.4326 284.372C65.2314 292.391 78.8268 289.598 85.449 288.101C99.5826 284.926 101.946 282.875 98.2566 282.329L89.7624 281.096ZM95.7528 293.171C95.7528 293.171 76.9002 289.942 76.1046 296.478C75.27 303.287 86.7048 300.612 92.2662 299.192C104.146 296.182 106.103 294.395 102.968 294.013L95.7528 293.171ZM99.4968 303.233C99.4968 303.233 81.12 297.96 79.6068 304.403C78.0468 311.08 89.7468 309.637 95.394 308.818C107.523 307.078 109.652 305.51 106.579 304.801L99.4968 303.233ZM83.2182 252.018C83.2182 252.018 72.969 227.37 64.1004 232.736C54.873 238.321 66.9396 248.82 72.9612 253.796C85.7922 264.475 89.5362 264.989 87.633 261.05L83.2182 252.018Z" fill="#4D6C40"/>
<path opacity="0.4" d="M93.3426 267.283C92.235 270.839 90.5736 268.187 89.6064 253.734C89.1462 246.956 88.4754 233.095 96.213 235.513C103.646 237.853 95.8698 259.069 95.8698 259.069L93.3426 267.283ZM103.795 268.476C103.795 268.476 118.045 250.926 111.766 246.308C105.238 241.504 101.369 254.834 99.5982 261.394C95.823 275.379 96.5328 278.429 98.7402 275.434L103.795 268.476ZM108.287 282.789C108.287 282.789 121.727 271.44 117.601 267.002C113.303 262.384 108.412 272.009 106.111 276.767C101.197 286.907 101.299 289.349 103.42 287.368L108.287 282.789ZM113.365 297.016C113.365 297.016 126.805 285.659 122.671 281.221C118.381 276.604 113.49 286.237 111.189 290.995C106.275 301.135 106.376 303.568 108.498 301.595L113.365 297.016ZM85.995 269.88C85.995 269.88 65.1456 261.136 62.4858 268.453C59.709 276.065 73.5852 276.034 80.379 275.894C94.8636 275.582 97.5858 274.045 94.0836 272.774L85.995 269.88ZM89.7624 281.096C89.7624 281.096 67.587 276.674 66.4326 284.372C65.2314 292.391 78.8268 289.598 85.449 288.101C99.5826 284.926 101.946 282.875 98.2566 282.329L89.7624 281.096ZM95.7528 293.171C95.7528 293.171 76.9002 289.942 76.1046 296.478C75.27 303.287 86.7048 300.612 92.2662 299.192C104.146 296.182 106.103 294.395 102.968 294.013L95.7528 293.171ZM99.4968 303.233C99.4968 303.233 81.12 297.96 79.6068 304.403C78.0468 311.08 89.7468 309.637 95.394 308.818C107.523 307.078 109.652 305.51 106.579 304.801L99.4968 303.233ZM83.2182 252.018C83.2182 252.018 72.969 227.37 64.1004 232.736C54.873 238.321 66.9396 248.82 72.9612 253.796C85.7922 264.475 89.5362 264.989 87.633 261.05L83.2182 252.018Z" fill="white"/>
<path d="M68.718 241.402C68.718 241.402 91.2522 264.67 97.1802 276.76C103.997 290.651 109.114 306.875 110.986 320.206" stroke="#4D6C40" stroke-width="1.25197" stroke-linecap="round" stroke-linejoin="round"/>
<path d="M92.438 268.944L93.3038 244.897" stroke="#4D6C40" stroke-width="1.25197" stroke-linecap="round" stroke-linejoin="round"/>
<path d="M97.1802 276.76L105.815 255.895" stroke="#4D6C40" stroke-width="1.25197" stroke-linecap="round" stroke-linejoin="round"/>
<path d="M95.4331 273.913L73.5151 271.315" stroke="#4D6C40" stroke-width="1.25197" stroke-linecap="round" stroke-linejoin="round"/>
<path d="M102.172 287.773L113.654 272.282" stroke="#4D6C40" stroke-width="1.25197" stroke-linecap="round" stroke-linejoin="round"/>
<path d="M100.012 283.163L83.7253 284.372" stroke="#4D6C40" stroke-width="1.25197" stroke-linecap="round" stroke-linejoin="round"/>
<path d="M104.122 294.723L91.6814 296.252" stroke="#4D6C40" stroke-width="1.25197" stroke-linecap="round" stroke-linejoin="round"/>
<path d="M107.312 302.047L113.256 292.586" stroke="#4D6C40" stroke-width="1.25197" stroke-linecap="round" stroke-linejoin="round"/>
<path d="M108.077 305.323L93.4207 305.807" stroke="#4D6C40" stroke-width="1.25197" stroke-linecap="round" stroke-linejoin="round"/>
<path d="M311.126 277.43C306.4 277.789 308.786 274.583 325.377 266.659C333.177 262.938 349.237 255.645 350.002 265.925C350.735 275.792 322.007 276.557 322.007 276.557L311.126 277.43ZM314.613 290.332C314.613 290.332 342.03 298.912 344.542 289.364C347.155 279.396 329.589 281.073 321.017 282.056C302.718 284.154 299.45 286.424 304.036 287.617L314.613 290.332ZM299.793 302.359C299.793 302.359 319.511 312.913 322.819 305.955C326.258 298.717 312.585 297.453 305.885 296.962C291.595 295.916 288.772 297.18 292.102 298.756L299.793 302.359ZM285.363 315.026C285.363 315.026 305.081 325.58 308.389 318.622C311.828 311.384 298.155 310.12 291.463 309.629C277.165 308.584 274.342 309.839 277.672 311.423L285.363 315.026ZM304.637 269.942C304.637 269.942 305.198 241.215 295.277 241.496C284.973 241.792 291.525 258.172 294.879 266.128C302.032 283.101 305.128 285.628 305.019 280.855L304.637 269.942ZM293.155 279.653C293.155 279.653 287.984 251.386 278.335 253.625C268.297 255.965 277.976 270.722 282.844 277.805C293.225 293.015 296.759 294.848 295.675 290.238L293.155 279.653ZM281.697 292.399C281.697 292.399 276.674 268.609 268.57 270.73C260.138 272.938 268.663 285.191 272.945 291.104C282.079 303.724 285.106 305.198 284.084 301.322L281.697 292.399ZM271.557 301.54C271.557 301.54 269.084 277.36 260.809 278.6C252.19 279.903 259.358 292.991 262.993 299.325C270.738 312.85 273.585 314.629 272.984 310.666L271.557 301.54ZM324.48 258.281C324.48 258.281 348.793 234.624 338.294 226.66C327.374 218.377 320.627 237.58 317.538 247.01C310.939 267.189 312.078 271.846 315.853 267.751L324.48 258.281Z" fill="#4D6C40"/>
<path opacity="0.4" d="M311.126 277.43C306.4 277.789 308.786 274.583 325.377 266.659C333.177 262.938 349.237 255.645 350.002 265.925C350.735 275.792 322.007 276.557 322.007 276.557L311.126 277.43ZM314.613 290.332C314.613 290.332 342.03 298.912 344.542 289.364C347.155 279.396 329.589 281.073 321.017 282.056C302.718 284.154 299.45 286.424 304.036 287.617L314.613 290.332ZM299.793 302.359C299.793 302.359 319.511 312.913 322.819 305.955C326.258 298.717 312.585 297.453 305.885 296.962C291.595 295.916 288.772 297.18 292.102 298.756L299.793 302.359ZM285.363 315.026C285.363 315.026 305.081 325.58 308.389 318.622C311.828 311.384 298.155 310.12 291.463 309.629C277.165 308.584 274.342 309.839 277.672 311.423L285.363 315.026ZM304.637 269.942C304.637 269.942 305.198 241.215 295.277 241.496C284.973 241.792 291.525 258.172 294.879 266.128C302.032 283.101 305.128 285.628 305.019 280.855L304.637 269.942ZM293.155 279.653C293.155 279.653 287.984 251.386 278.335 253.625C268.297 255.965 277.976 270.722 282.844 277.805C293.225 293.015 296.759 294.848 295.675 290.238L293.155 279.653ZM281.697 292.399C281.697 292.399 276.674 268.609 268.57 270.73C260.138 272.938 268.663 285.191 272.945 291.104C282.079 303.724 285.106 305.198 284.084 301.322L281.697 292.399ZM271.557 301.54C271.557 301.54 269.084 277.36 260.809 278.6C252.19 279.903 259.358 292.991 262.993 299.325C270.738 312.85 273.585 314.629 272.984 310.666L271.557 301.54ZM324.48 258.281C324.48 258.281 348.793 234.624 338.294 226.66C327.374 218.377 320.627 237.58 317.538 247.01C310.939 267.189 312.078 271.846 315.853 267.751L324.48 258.281Z" fill="white"/>
<path d="M330.158 236.2C330.158 236.2 313.232 273.733 301.727 286.408C288.514 300.979 271.736 314.629 256.862 323.068" stroke="#4D6C40" stroke-width="1.25197" stroke-linecap="round" stroke-linejoin="round"/>
<path d="M308.732 277.134L337.553 266.885" stroke="#4D6C40" stroke-width="1.25197" stroke-linecap="round" stroke-linejoin="round"/>
<path d="M301.728 286.408L330.432 286.829" stroke="#4D6C40" stroke-width="1.25197" stroke-linecap="round" stroke-linejoin="round"/>
<path d="M304.263 283.007L297.063 255.887" stroke="#4D6C40" stroke-width="1.25197" stroke-linecap="round" stroke-linejoin="round"/>
<path d="M291.049 297.476L314.738 303.771" stroke="#4D6C40" stroke-width="1.25197" stroke-linecap="round" stroke-linejoin="round"/>
<path d="M295.487 292.757L286.416 274.076" stroke="#4D6C40" stroke-width="1.25197" stroke-linecap="round" stroke-linejoin="round"/>
<path d="M283.756 303.03L276.12 289.052" stroke="#4D6C40" stroke-width="1.25197" stroke-linecap="round" stroke-linejoin="round"/>
<path d="M276.596 310.237L290.566 312.827" stroke="#4D6C40" stroke-width="1.25197" stroke-linecap="round" stroke-linejoin="round"/>
<path d="M273.086 312.671L265.645 295.581" stroke="#4D6C40" stroke-width="1.25197" stroke-linecap="round" stroke-linejoin="round"/>
<path d="M245.271 280.504C243.711 282.883 243.048 280.589 245.372 269.763C246.464 264.685 248.89 254.358 254.062 257.767C259.03 261.043 248.851 275.005 248.851 275.005L245.271 280.504ZM252.697 283.577C252.697 283.577 266.861 273.679 263.219 268.967C259.436 264.069 253.789 273.047 251.105 277.493C245.388 286.978 245.271 289.364 247.525 287.633L252.697 283.577ZM252.993 295.043C252.993 295.043 265.255 289.528 263.133 285.402C260.949 281.104 255.333 287.149 252.634 290.16C246.886 296.579 246.449 298.389 248.43 297.383L252.993 295.043ZM253.726 306.563C253.726 306.563 265.988 301.049 263.866 296.923C261.682 292.625 256.066 298.67 253.367 301.681C247.627 308.1 247.19 309.91 249.163 308.903L253.726 306.563ZM239.335 280.823C239.335 280.823 225.857 270.013 222.362 274.825C218.72 279.841 228.922 282.734 233.945 284.06C244.647 286.876 246.971 286.322 244.663 284.653L239.335 280.823ZM239.741 289.856C239.741 289.856 224.383 281.939 221.91 287.352C219.344 292.991 229.921 293.803 235.1 294.099C246.152 294.739 248.321 293.725 245.723 292.539L239.741 289.856ZM241.605 299.996C241.605 299.996 228.431 293.654 226.465 298.295C224.422 303.116 233.392 303.56 237.775 303.693C247.135 303.974 248.953 303.069 246.73 302.133L241.605 299.996ZM242.237 308.178C242.237 308.178 229.811 300.479 227.37 304.879C224.819 309.457 233.688 310.846 238.04 311.446C247.315 312.725 249.21 312.016 247.104 310.846L242.237 308.178ZM241.02 267.127C241.02 267.127 238.68 246.847 231.028 248.945C223.072 251.105 229.733 261.355 233.103 266.3C240.287 276.845 242.923 278 242.362 274.716L241.02 267.127Z" fill="#4D6C40"/>
<path opacity="0.4" d="M245.271 280.504C243.711 282.883 243.048 280.589 245.372 269.763C246.464 264.685 248.89 254.358 254.062 257.767C259.03 261.043 248.851 275.005 248.851 275.005L245.271 280.504ZM252.697 283.577C252.697 283.577 266.861 273.679 263.219 268.967C259.436 264.069 253.789 273.047 251.105 277.493C245.388 286.978 245.271 289.364 247.525 287.633L252.697 283.577ZM252.993 295.043C252.993 295.043 265.255 289.528 263.133 285.402C260.949 281.104 255.333 287.149 252.634 290.16C246.886 296.579 246.449 298.389 248.43 297.383L252.993 295.043ZM253.726 306.563C253.726 306.563 265.988 301.049 263.866 296.923C261.682 292.625 256.066 298.67 253.367 301.681C247.627 308.1 247.19 309.91 249.163 308.903L253.726 306.563ZM239.335 280.823C239.335 280.823 225.857 270.013 222.362 274.825C218.72 279.841 228.922 282.734 233.945 284.06C244.647 286.876 246.971 286.322 244.663 284.653L239.335 280.823ZM239.741 289.856C239.741 289.856 224.383 281.939 221.91 287.352C219.344 292.991 229.921 293.803 235.1 294.099C246.152 294.739 248.321 293.725 245.723 292.539L239.741 289.856ZM241.605 299.996C241.605 299.996 228.431 293.654 226.465 298.295C224.422 303.116 233.392 303.56 237.775 303.693C247.135 303.974 248.953 303.069 246.73 302.133L241.605 299.996ZM242.237 308.178C242.237 308.178 229.811 300.479 227.37 304.879C224.819 309.457 233.688 310.846 238.04 311.446C247.315 312.725 249.21 312.016 247.104 310.846L242.237 308.178ZM241.02 267.127C241.02 267.127 238.68 246.847 231.028 248.945C223.072 251.105 229.733 261.355 233.103 266.3C240.287 276.845 242.923 278 242.362 274.716L241.02 267.127Z" fill="white"/>
<path d="M232.627 256.308C232.627 256.308 244.288 278.148 246.098 288.288C248.188 299.933 248.531 312.928 247.096 323.123" stroke="#4D6C40" stroke-width="1.25197" stroke-linecap="round" stroke-linejoin="round"/>
<path d="M244.257 281.533L249.951 264.053" stroke="#4D6C40" stroke-width="1.25197" stroke-linecap="round" stroke-linejoin="round"/>
<path d="M246.098 288.272L256.831 274.763" stroke="#4D6C40" stroke-width="1.25197" stroke-linecap="round" stroke-linejoin="round"/>
<path d="M245.412 285.815L229.851 279.295" stroke="#4D6C40" stroke-width="1.25197" stroke-linecap="round" stroke-linejoin="round"/>
<path d="M247.447 297.422L259.139 288.452" stroke="#4D6C40" stroke-width="1.25197" stroke-linecap="round" stroke-linejoin="round"/>
<path d="M246.831 293.576L234.608 291.041" stroke="#4D6C40" stroke-width="1.25197" stroke-linecap="round" stroke-linejoin="round"/>
<path d="M247.416 302.929L237.955 301.439" stroke="#4D6C40" stroke-width="1.25197" stroke-linecap="round" stroke-linejoin="round"/>
<path d="M248.219 308.989L254.576 303.287" stroke="#4D6C40" stroke-width="1.25197" stroke-linecap="round" stroke-linejoin="round"/>
<path d="M248.095 311.555L237.221 308.825" stroke="#4D6C40" stroke-width="1.25197" stroke-linecap="round" stroke-linejoin="round"/>
<path d="M71.6041 299.52C72.0799 301.774 70.3873 300.846 65.5045 293.342C63.1801 289.864 58.6639 282.586 63.5701 281.58C68.2501 280.589 70.4887 294.388 70.4887 294.388L71.6041 299.52ZM77.6023 297.008C77.6023 297.008 79.9891 283.249 75.2155 282.649C70.2391 282.032 72.1813 290.386 73.2031 294.458C75.3871 303.139 76.6897 304.598 76.9705 302.258L77.6023 297.008ZM84.3493 303.373C84.3493 303.373 88.1635 293.194 84.5989 292.048C80.8939 290.854 81.1591 297.508 81.3541 300.784C81.7675 307.733 82.5553 309.02 83.1013 307.312L84.3493 303.373ZM91.3693 309.512C91.3693 309.512 95.1835 299.333 91.6189 298.186C87.9139 296.993 88.1791 303.646 88.3741 306.922C88.7875 313.872 89.5753 315.159 90.1213 313.451L91.3693 309.512ZM68.4061 303.116C68.4061 303.116 54.5299 304.676 55.3021 309.442C56.0821 314.387 63.5779 310.183 67.1971 308.053C74.9113 303.521 75.9175 301.868 73.6399 302.242L68.4061 303.116ZM73.8661 308.03C73.8661 308.03 60.6061 312.335 62.2753 316.836C64.0459 321.516 70.5277 315.916 73.6555 313.108C80.3167 307.133 80.9719 305.308 78.8191 306.127L73.8661 308.03ZM80.7379 312.71C80.7379 312.71 69.5995 316.657 71.1439 320.424C72.7039 324.324 78.1015 319.449 80.6755 317.008C86.1355 311.797 86.6893 310.245 84.8797 310.986L80.7379 312.71ZM85.7923 317.008C85.7923 317.008 74.2717 319.8 75.4027 323.7C76.5805 327.772 82.4227 323.474 85.2463 321.313C91.2679 316.719 91.9387 315.229 90.0667 315.775L85.7923 317.008ZM61.5265 294.356C61.5265 294.356 48.5629 284.162 45.4039 289.731C42.1123 295.526 51.7843 297.531 56.5423 298.428C66.6823 300.308 68.8585 299.458 66.6823 297.905L61.5265 294.356Z" fill="#4D6C40"/>
<path opacity="0.4" d="M71.6041 299.52C72.0799 301.774 70.3873 300.846 65.5045 293.342C63.1801 289.864 58.6639 282.586 63.5701 281.58C68.2501 280.589 70.4887 294.388 70.4887 294.388L71.6041 299.52ZM77.6023 297.008C77.6023 297.008 79.9891 283.249 75.2155 282.649C70.2391 282.032 72.1813 290.386 73.2031 294.458C75.3871 303.139 76.6897 304.598 76.9705 302.258L77.6023 297.008ZM84.3493 303.373C84.3493 303.373 88.1635 293.194 84.5989 292.048C80.8939 290.854 81.1591 297.508 81.3541 300.784C81.7675 307.733 82.5553 309.02 83.1013 307.312L84.3493 303.373ZM91.3693 309.512C91.3693 309.512 95.1835 299.333 91.6189 298.186C87.9139 296.993 88.1791 303.646 88.3741 306.922C88.7875 313.872 89.5753 315.159 90.1213 313.451L91.3693 309.512ZM68.4061 303.116C68.4061 303.116 54.5299 304.676 55.3021 309.442C56.0821 314.387 63.5779 310.183 67.1971 308.053C74.9113 303.521 75.9175 301.868 73.6399 302.242L68.4061 303.116ZM73.8661 308.03C73.8661 308.03 60.6061 312.335 62.2753 316.836C64.0459 321.516 70.5277 315.916 73.6555 313.108C80.3167 307.133 80.9719 305.308 78.8191 306.127L73.8661 308.03ZM80.7379 312.71C80.7379 312.71 69.5995 316.657 71.1439 320.424C72.7039 324.324 78.1015 319.449 80.6755 317.008C86.1355 311.797 86.6893 310.245 84.8797 310.986L80.7379 312.71ZM85.7923 317.008C85.7923 317.008 74.2717 319.8 75.4027 323.7C76.5805 327.772 82.4227 323.474 85.2463 321.313C91.2679 316.719 91.9387 315.229 90.0667 315.775L85.7923 317.008ZM61.5265 294.356C61.5265 294.356 48.5629 284.162 45.4039 289.731C42.1123 295.526 51.7843 297.531 56.5423 298.428C66.6823 300.308 68.8585 299.458 66.6823 297.905L61.5265 294.356Z" fill="white"/>
<path d="M50.5208 293.03C50.5208 293.03 69.6932 298.74 76.5338 303.506C84.311 308.862 91.2416 315.353 97.0946 322.764" stroke="#4D6C40" stroke-width="1.25197" stroke-linecap="round" stroke-linejoin="round"/>
<path d="M71.6197 300.721L64.8337 287.492" stroke="#4D6C40" stroke-width="1.25197" stroke-linecap="round" stroke-linejoin="round"/>
<path d="M76.5338 303.506L74.8958 289.645" stroke="#4D6C40" stroke-width="1.25197" stroke-linecap="round" stroke-linejoin="round"/>
<path d="M74.7398 302.5L62.135 307.71" stroke="#4D6C40" stroke-width="1.25197" stroke-linecap="round" stroke-linejoin="round"/>
<path d="M82.5552 307.936L84.0684 296.119" stroke="#4D6C40" stroke-width="1.25197" stroke-linecap="round" stroke-linejoin="round"/>
<path d="M79.997 306.103L71.5808 311.672" stroke="#4D6C40" stroke-width="1.25197" stroke-linecap="round" stroke-linejoin="round"/>
<path d="M85.6987 311.095L79.4509 315.674" stroke="#4D6C40" stroke-width="1.25197" stroke-linecap="round" stroke-linejoin="round"/>
<path d="M89.6299 314.083L89.9809 307.187" stroke="#4D6C40" stroke-width="1.25197" stroke-linecap="round" stroke-linejoin="round"/>
<path d="M91.0339 315.619L83.2729 320.299" stroke="#4D6C40" stroke-width="1.25197" stroke-linecap="round" stroke-linejoin="round"/>
<path d="M197.629 347.662C255.905 347.662 303.147 342.196 303.147 335.455C303.147 328.713 255.905 323.248 197.629 323.248C139.352 323.248 92.1101 328.713 92.1101 335.455C92.1101 342.196 139.352 347.662 197.629 347.662Z" fill="#3C3C3C"/>
<path d="M163.8 150.758C163.8 150.758 160.399 142.022 152.155 138.013C143.91 134.004 122.912 145.642 120.994 150.563C119.075 155.485 126.321 154.378 124.488 157.981C122.655 161.585 98.28 167.7 95.0976 175.703C91.9152 183.706 99.1224 187.145 97.8042 191.045C96.486 194.945 87.7422 202.348 91.689 210.857C95.6358 219.367 113.287 214.157 118.7 212.659C124.114 211.162 121.196 215.218 123.115 218.267C125.034 221.317 138.973 217.784 143.793 213.322C148.613 208.861 146.609 218.33 151.312 217.074C153.028 216.622 157.053 208.034 160.937 193.674C164.822 179.314 167.466 163.511 163.8 150.758Z" fill="#3C3C3C"/>
<path d="M139.058 261.791C139.058 261.791 135.104 265.06 129.987 270.317C124.87 275.574 117.234 293.53 115.385 296.314C113.537 299.099 109.574 302.554 109.574 302.554C109.574 302.554 102.554 302.086 102.235 303.732C101.915 305.378 101.712 308.467 100.776 310.066C99.84 311.665 98.0382 313.825 98.8884 316.579C99.7386 319.332 100.807 322.101 102.305 321.368C103.802 320.635 104.286 319.636 105.565 315.986C106.844 312.335 117.328 304.528 120.994 299.38C124.66 294.232 138.427 280.621 140.213 278.671C141.999 276.721 144.893 277.321 146.039 269.1C147.186 260.879 142.966 259.147 139.058 261.791Z" fill="white" stroke="#3C3C3C" stroke-linecap="round" stroke-linejoin="round"/>
<path d="M140.213 278.678C142.007 276.721 144.893 277.329 146.039 269.108C147.186 260.887 142.966 259.147 139.058 261.791C139.058 261.791 135.104 265.06 129.987 270.317C125.471 274.95 119.012 289.435 116.275 294.723C117.624 296.513 119.484 297.851 121.61 298.561C125.986 292.913 138.512 280.535 140.213 278.678Z" fill="#4D6C40" stroke="#3C3C3C" stroke-miterlimit="10"/>
<path d="M106.353 307.32L108.194 302.507C106.135 302.461 102.461 302.554 102.235 303.732C101.923 305.37 101.712 308.467 100.776 310.066C99.84 311.665 98.0382 313.825 98.8884 316.579C99.7386 319.332 100.807 322.093 102.305 321.368C103.802 320.642 104.286 319.636 105.565 315.986C106.142 314.348 108.56 311.883 111.384 309.192C109.512 307.219 106.353 307.32 106.353 307.32Z" fill="#B2B2B2" stroke="#3C3C3C" stroke-linecap="round" stroke-linejoin="round"/>
<path d="M149.908 175.009C149.908 175.009 141.406 173.3 138.988 178.019C136.57 182.738 144.253 203.892 144.581 206.193C144.908 208.494 134.183 215.904 131.196 224.133C128.209 232.362 130.143 239.834 133.661 250.474C137.179 261.113 140.743 266.222 139.768 271.034C138.793 275.847 138.871 282.032 140.548 286.697C142.225 291.361 151.281 313.42 151.086 316.337C150.891 319.254 147.373 323.24 147.451 324.542C147.529 325.845 154.237 330.041 156.663 332.639C159.089 335.236 163.862 336.859 164.284 335.423C164.705 333.988 160.423 329.963 159.697 326.173C158.972 322.382 156.452 313.927 155.977 308.857C155.501 303.787 151.983 276.097 151.531 273.117C151.265 270.63 151.216 268.125 151.382 265.629C151.382 265.629 159.962 251.09 161.413 239.476C162.864 227.861 163.917 211.684 164.986 207.854C166.054 204.025 168.418 195.374 168.418 195.374C169.373 190.907 169.636 186.319 169.198 181.771C168.332 175.211 158.668 173.917 155.555 174.197C152.443 174.478 149.908 175.009 149.908 175.009Z" fill="white" stroke="#3C3C3C" stroke-linecap="round" stroke-linejoin="round"/>
<path d="M155.493 304.824C154.401 295.464 151.874 275.621 151.492 273.14C151.226 270.653 151.177 268.148 151.343 265.652C151.343 265.652 159.923 251.113 161.374 239.499C161.803 236.028 162.193 232.151 162.568 228.314C156.671 228.072 144.487 226.754 133.099 220.342C132.328 221.542 131.688 222.821 131.188 224.156C128.193 232.409 130.135 239.858 133.653 250.497C137.171 261.136 140.735 266.245 139.76 271.058C138.785 275.87 138.863 282.056 140.54 286.72C141.531 289.544 145.259 298.756 148.005 306.22C150.583 306.484 153.183 305.999 155.493 304.824Z" fill="#4D6C40"/>
<mask id="mask0_20_2935" style="mask-type:luminance" maskUnits="userSpaceOnUse" x="129" y="220" width="34" height="87">
<path d="M155.493 304.824C154.401 295.464 151.874 275.621 151.492 273.14C151.226 270.653 151.177 268.148 151.343 265.652C151.343 265.652 159.923 251.113 161.374 239.499C161.803 236.028 162.193 232.151 162.568 228.314C156.671 228.072 144.487 226.754 133.099 220.342C132.328 221.542 131.688 222.821 131.188 224.156C128.193 232.409 130.135 239.858 133.653 250.497C137.171 261.136 140.735 266.245 139.76 271.058C138.785 275.87 138.863 282.056 140.54 286.72C141.531 289.544 145.259 298.756 148.005 306.22C150.583 306.484 153.183 305.999 155.493 304.824Z" fill="white"/>
</mask>
<g mask="url(#mask0_20_2935)">
<path opacity="0.3" d="M151.936 230.545C151 236.785 149.12 233.36 148.489 232.105C147.857 230.849 141.913 223.33 142.249 226.153C142.584 228.977 146.632 260.598 148.489 270.613C150.095 279.193 152.607 295.222 154.089 305.401C154.549 305.23 155.009 305.042 155.493 304.808C154.401 295.448 151.874 275.605 151.492 273.125C151.226 270.638 151.177 268.132 151.343 265.637C151.343 265.637 159.923 251.098 161.374 239.483C161.803 236.012 162.193 232.136 162.568 228.298C159.165 228.148 155.777 227.762 152.428 227.144C152.264 228.353 152.1 229.492 151.936 230.545Z" fill="#3C3C3C"/>
<path d="M148.629 236.496C148.629 236.496 150.462 255.707 150.821 262.782" stroke="#3C3C3C" stroke-linecap="round" stroke-linejoin="round"/>
</g>
<path d="M155.493 304.824C154.401 295.464 151.874 275.621 151.492 273.14C151.226 270.653 151.177 268.148 151.343 265.652C151.343 265.652 159.923 251.113 161.374 239.499C161.803 236.028 162.193 232.151 162.568 228.314C156.671 228.072 144.487 226.754 133.099 220.342C132.328 221.542 131.688 222.821 131.188 224.156C128.193 232.409 130.135 239.858 133.653 250.497C137.171 261.136 140.735 266.245 139.76 271.058C138.785 275.87 138.863 282.056 140.54 286.72C141.531 289.544 145.259 298.756 148.005 306.22C150.583 306.484 153.183 305.999 155.493 304.824Z" stroke="#3C3C3C" stroke-miterlimit="10"/>
<path d="M130.533 226.262C134.433 230.435 144.167 238.04 161.889 235.045C163.067 224.125 164.011 211.24 164.947 207.878C166.015 204.048 168.379 195.398 168.379 195.398C169.334 190.93 169.597 186.342 169.159 181.795C168.293 175.235 158.629 173.94 155.516 174.221C152.404 174.502 149.939 175.001 149.939 175.001C149.939 175.001 141.437 173.293 139.019 178.012C136.601 182.731 144.284 203.884 144.612 206.185C144.94 208.486 134.215 215.896 131.227 224.125C130.931 224.866 130.72 225.568 130.533 226.262Z" fill="#808080"/>
<mask id="mask1_20_2935" style="mask-type:luminance" maskUnits="userSpaceOnUse" x="130" y="174" width="40" height="62">
<path d="M130.533 226.262C134.433 230.435 144.167 238.04 161.889 235.045C163.067 224.125 164.011 211.24 164.947 207.878C166.015 204.048 168.379 195.398 168.379 195.398C169.334 190.93 169.597 186.342 169.159 181.795C168.293 175.235 158.629 173.94 155.516 174.221C152.404 174.502 149.939 175.001 149.939 175.001C149.939 175.001 141.437 173.293 139.019 178.012C136.601 182.731 144.284 203.884 144.612 206.185C144.94 208.486 134.215 215.896 131.227 224.125C130.931 224.866 130.72 225.568 130.533 226.262Z" fill="white"/>
</mask>
<g mask="url(#mask1_20_2935)">
<path opacity="0.3" d="M169.127 181.818C168.262 175.258 158.597 173.963 155.485 174.244C152.373 174.525 149.908 175.024 149.908 175.024C149.908 175.024 149.518 174.946 148.886 174.868L149.744 179.197C149.744 179.197 159.455 188.596 159.767 193.916C160.079 199.235 156.008 203.627 155.087 209.266C154.167 214.906 152.896 224.297 151.967 230.56C151.039 236.824 149.152 233.376 148.52 232.12C147.888 230.864 141.944 223.345 142.28 226.169C142.373 226.949 142.748 229.975 143.294 234.133C148.138 235.693 154.3 236.348 161.944 235.053C163.121 224.133 164.065 211.247 165.001 207.886C166.07 204.056 168.433 195.406 168.433 195.406C169.358 190.939 169.592 186.356 169.127 181.818Z" fill="#3C3C3C"/>
</g>
<path d="M130.533 226.262C134.433 230.435 144.167 238.04 161.889 235.045C163.067 224.125 164.011 211.24 164.947 207.878C166.015 204.048 168.379 195.398 168.379 195.398C169.334 190.93 169.597 186.342 169.159 181.795C168.293 175.235 158.629 173.94 155.516 174.221C152.404 174.502 149.939 175.001 149.939 175.001C149.939 175.001 141.437 173.293 139.019 178.012C136.601 182.731 144.284 203.884 144.612 206.185C144.94 208.486 134.215 215.896 131.227 224.125C130.931 224.866 130.72 225.568 130.533 226.262Z" stroke="#3C3C3C" stroke-linecap="round" stroke-linejoin="round"/>
<path d="M145.439 171.296C146.107 172.675 146.612 174.128 146.944 175.625C147.155 177.263 148.918 180.149 151.523 182.434C154.128 184.72 155.743 182.551 155.626 179.455C155.509 176.358 153.886 168.932 153.886 168.932C153.886 168.932 148.496 171.826 145.439 171.296Z" fill="white" stroke="#3C3C3C" stroke-linecap="round" stroke-linejoin="round"/>
<path d="M137.966 159.12C137.728 159.079 137.484 159.092 137.251 159.158C137.018 159.223 136.803 159.34 136.62 159.499C136.438 159.658 136.294 159.856 136.197 160.077C136.101 160.299 136.055 160.54 136.063 160.781C135.938 162.724 139.292 163.597 139.292 163.597L137.966 159.12Z" fill="white" stroke="#3C3C3C" stroke-linecap="round" stroke-linejoin="round"/>
<path d="M149.682 146.71C149.682 146.71 144.074 155.29 138.2 157.973C138.2 157.973 138.98 167.614 142.389 170.765C145.798 173.917 151.32 173.316 154.58 170.765C157.841 168.215 156.429 152.825 156.429 152.825C156.429 152.825 151.398 150.236 149.682 146.71Z" fill="white"/>
<mask id="mask2_20_2935" style="mask-type:luminance" maskUnits="userSpaceOnUse" x="138" y="146" width="19" height="27">
<path d="M149.682 146.71C149.682 146.71 144.074 155.29 138.2 157.973C138.2 157.973 138.98 167.614 142.389 170.765C145.798 173.917 151.32 173.316 154.58 170.765C157.841 168.215 156.429 152.825 156.429 152.825C156.429 152.825 151.398 150.236 149.682 146.71Z" fill="white"/>
</mask>
<g mask="url(#mask2_20_2935)">
<path opacity="0.3" d="M149.682 146.71L149.526 146.936L149.596 148.044C151.757 152.939 152.918 158.216 153.013 163.566C153.069 165.274 152.779 166.976 152.16 168.568C151.54 170.161 150.605 171.612 149.409 172.832C151.288 172.622 153.074 171.908 154.58 170.765C157.841 168.223 156.429 152.825 156.429 152.825C156.429 152.825 151.398 150.236 149.682 146.71Z" fill="#3C3C3C"/>
</g>
<path d="M149.682 146.71C149.682 146.71 144.074 155.29 138.2 157.973C138.2 157.973 138.98 167.614 142.389 170.765C145.798 173.917 151.32 173.316 154.58 170.765C157.841 168.215 156.429 152.825 156.429 152.825C156.429 152.825 151.398 150.236 149.682 146.71Z" stroke="#3C3C3C" stroke-linecap="round" stroke-linejoin="round"/>
<path d="M145.735 157.17C145.91 157.974 145.91 158.807 145.735 159.611C145.462 161.218 144.128 161.78 146.055 162.068" stroke="#3C3C3C" stroke-linecap="round" stroke-linejoin="round"/>
<path d="M144.425 164.58C144.425 164.58 147.545 166.093 151.445 161.959" stroke="#3C3C3C" stroke-linecap="round" stroke-linejoin="round"/>
<path d="M140.049 159.557C140.049 159.557 141.32 157.529 144.004 158.683" stroke="#3C3C3C" stroke-linecap="round" stroke-linejoin="round"/>
<path d="M148.917 158.2C148.917 158.2 152.037 155.641 154.487 157.591" stroke="#3C3C3C" stroke-linecap="round" stroke-linejoin="round"/>
<path d="M147.935 153.418C148.558 152.601 149.467 152.049 150.481 151.876C151.494 151.702 152.535 151.919 153.395 152.482" stroke="#3C3C3C" stroke-linecap="round" stroke-linejoin="round"/>
<path d="M249.928 217.63C287.494 204.747 307.503 163.849 294.62 126.283C281.736 88.7174 240.838 68.7085 203.273 81.5922C165.707 94.4758 145.698 135.373 158.581 172.939C171.465 210.505 212.362 230.514 249.928 217.63Z" fill="#4D6C40"/>
<mask id="mask3_20_2935" style="mask-type:luminance" maskUnits="userSpaceOnUse" x="154" y="77" width="145" height="145">
<path d="M249.928 217.63C287.494 204.747 307.503 163.849 294.62 126.283C281.736 88.7174 240.838 68.7085 203.273 81.5922C165.707 94.4758 145.698 135.373 158.581 172.939C171.465 210.505 212.362 230.514 249.928 217.63Z" fill="white"/>
</mask>
<g mask="url(#mask3_20_2935)">
<path d="M216.856 117.702L224.188 119.223L226.684 121.813L229.936 122.312L230.974 125.408L230.217 127.499L227.994 128.513L222.55 127.624L222.401 126.961L224.975 125.167L223.205 121.883L218.338 121.22L215.74 118.997L216.856 117.702Z" fill="#8F8F8F"/>
<path d="M275.925 185.344L270.114 184.369L263.094 183.479L257.93 184.626L252.876 184.696L247.806 187.036L244.842 187.871L243.009 188.276L239.959 191.1L236.925 193.175L231.8 191.342L231.933 186.42L228.813 185.882L225.482 186.662L224.64 185.195L224.312 182.122L222.752 180.71L220.49 181.561L220.194 183.378L217.402 184.158L214.29 181.74L212.402 177.957L213.868 172.739L218.775 171.998L220.335 172.871L222.331 172.427L224.5 170.375L226.84 170.555L230.989 175.055L232.12 174.634L230.935 170.875L229.492 169.096L229.117 165.859L234.694 161.819L234.156 155.477L236.34 152.716L237.658 148.403L239.218 147.701L242.494 144.347L242.362 142.982L239.733 143.762L238.953 142.537L237.12 142.951L234.437 144.245L235.287 141.781L240.747 138.817L241.753 137.023L244.873 140.143L246.706 141.305L248.89 140.119L247.408 138.177L243.36 136.5L238.368 132.889L233.571 130.978L229.429 131.204L226.98 129.644L224.172 129.574L223.985 130.354L224.726 135.252L225.763 136.773L225.443 142.436L221.52 140.4V137.959L217.62 137.069L215.709 135.572L215.623 131.219L219.672 126.649L219.118 122.577L217.324 123.154L215.826 121.914L214.773 119.519L213.564 119.613L213.494 122.429L211.731 123.17L209.61 117.523L208.05 116.984L205.499 116.501L203.159 118.427L207.246 120.9L208.541 123.583L201.521 120.416L196.357 116.844L195.023 112.421L190.398 112.047L187.551 114.956C186.85 115.626 186.113 116.256 185.344 116.844C184.099 117.456 182.811 117.977 181.49 118.404V121.384L177.692 122.405L178.433 124.16L184.821 123.794L188.76 126.586L190.055 132.421L189.368 137.99L190.928 143.45L188.074 152.654L189.774 165.032L192.824 171.701L196.178 176.553L198.752 176.327L197.34 173.784L195.562 172.084L193.916 168.605L195.343 167.934L199.009 173.394L201.856 178.355L202.816 182.684L206.833 185.804L213.424 188.713L222.604 189.119L225.826 191.03L228.415 193.253L231.824 194.415L235.724 194.602L239.351 193.619C239.351 193.619 239.554 195.328 239.741 196.154C239.928 196.981 238.22 200.343 238.22 200.343L237.128 204.079L239.281 207.449L243.274 208.135L249.623 212.316L252.174 212.8L252.736 215.296L253.282 216.395C265.774 211.432 276.616 203.053 284.567 192.215L284.388 190.983L287.04 181.834L284.544 180.812L275.925 185.344Z" fill="#8F8F8F"/>
<path d="M278.639 115.697L276.12 112.936L273 109.816L271.222 104.972L274.342 104.801L274.139 103.1L271.931 103.412L273.577 102.172L275.324 100.565L274.95 98.8962L272.36 96.681L271.136 93.1866C258.822 83.4918 243.679 78.0827 228.009 77.7814C212.339 77.4801 197 82.3031 184.322 91.5174L188.768 93.3894L187.099 96.9072L184.08 98.28L184.743 102.859L183.518 103.639L182.263 105.838L183.097 108.802L185.999 108.506L185.461 111.626L188.292 110.994L191.755 103.763L191.669 100.987L196.256 99.6138L196.981 97.3596L201.7 95.7996L201.568 92.859L205.031 91.9152C205.869 91.1641 206.775 90.4929 207.737 89.9106C208.745 89.9079 209.751 89.9783 210.748 90.1212L213.697 91.5642L217.191 90.7842L219.781 88.2882L223.681 87.7656C224.311 88.0099 224.99 88.1008 225.662 88.0308C226.496 87.8436 228.735 86.1198 228.735 86.1198L234.234 88.0464L236.574 89.1072L237.128 91.6032L239.702 91.377L240.201 89.7L242.588 90.2148L242.72 91.5876L238.04 94.029L241.683 97.0632L248.422 99.06L251.659 101.837L255.403 101.361L255.863 99.5124L257.119 98.8806L252.049 96.5406L249.311 96.798L251.332 95.6514L248.703 93.2646L251.495 92.4846L255.606 93.6702L257.33 97.4844L259.67 99.2394L262.244 103.74L266.503 105.589L267.719 111.088L272.111 112.741L272.345 114.605V116.883L274.014 119.66L274.677 121.087L277.618 120.955L278.327 117.835L278.639 115.697Z" fill="#8F8F8F"/>
<path d="M277.079 98.4282L277.29 99.3876L277.048 102.235L278.07 104.458L280.051 104.715L280.753 107.882L278.569 107.492L280.067 116.602L278.881 120.713L281.221 125.081L283.826 126.594L285.823 135.595L289.544 142.108L293.062 146.921L297.118 147.069L297.71 143.442L298.155 142.896C297.872 139.922 297.405 136.968 296.759 134.051C293.783 120.523 286.947 108.148 277.079 98.4282Z" fill="#8F8F8F"/>
<path d="M238.368 105.932L226.294 103.545L221.504 104.785L221.036 108.209L218.556 106.486L215.077 108.131L215.966 113.708L219.445 115.206L220.912 111.556L223.961 113.498L230.123 116.852L232.198 121.462L237.752 126.001L244.491 123.279L243.766 120.814L241.636 118.318L239.827 111.727L240.864 108.521L238.368 105.932Z" fill="#8F8F8F"/>
<path d="M248.173 107.601L245.528 107.492L243.766 109.801L246.004 114.371L248.173 113.896V107.601Z" fill="#8F8F8F"/>
<path d="M264.373 107.328L258.04 105.589L256.433 103.841L255.208 104.637L257.111 107.71L259.077 111.821L261.799 112.265L262.15 111.493L260.091 109.325L264.794 110.027L264.373 107.328Z" fill="#8F8F8F"/>
<path d="M229.078 178.269L228.563 179.08L233.891 179.47L236.41 181.358L239.647 180.991L240.412 178.901L236.426 179.088L229.078 178.269Z" fill="#8F8F8F"/>
<path d="M244.608 178.144L241.332 179.915L242.128 181.139L246.464 180.18L246.995 178.659L245.536 179.158L244.608 178.144Z" fill="#8F8F8F"/>
<path d="M216.856 117.702L224.188 119.223L226.684 121.813L229.936 122.312L230.974 125.408L230.217 127.499L227.994 128.513L222.55 127.624L222.401 126.961L224.975 125.167L223.205 121.883L218.338 121.22L215.74 118.997L216.856 117.702Z" stroke="#3C3C3C" stroke-miterlimit="10"/>
<path d="M275.925 185.344L270.114 184.369L263.094 183.479L257.93 184.626L252.876 184.696L247.806 187.036L244.842 187.871L243.009 188.276L239.959 191.1L236.925 193.175L231.8 191.342L231.933 186.42L228.813 185.882L225.482 186.662L224.64 185.195L224.312 182.122L222.752 180.71L220.49 181.561L220.194 183.378L217.402 184.158L214.29 181.74L212.402 177.957L213.868 172.739L218.775 171.998L220.335 172.871L222.331 172.427L224.5 170.375L226.84 170.555L230.989 175.055L232.12 174.634L230.935 170.875L229.492 169.096L229.117 165.859L234.694 161.819L234.156 155.477L236.34 152.716L237.658 148.403L239.218 147.701L242.494 144.347L242.362 142.982L239.733 143.762L238.953 142.537L237.12 142.951L234.437 144.245L235.287 141.781L240.747 138.817L241.753 137.023L244.873 140.143L246.706 141.305L248.89 140.119L247.408 138.177L243.36 136.5L238.368 132.889L233.571 130.978L229.429 131.204L226.98 129.644L224.172 129.574L223.985 130.354L224.726 135.252L225.763 136.773L225.443 142.436L221.52 140.4V137.959L217.62 137.069L215.709 135.572L215.623 131.219L219.672 126.649L219.118 122.577L217.324 123.154L215.826 121.914L214.773 119.519L213.564 119.613L213.494 122.429L211.731 123.17L209.61 117.523L208.05 116.984L205.499 116.501L203.159 118.427L207.246 120.9L208.541 123.583L201.521 120.416L196.357 116.844L195.023 112.421L190.398 112.047L187.551 114.956C186.85 115.626 186.113 116.256 185.344 116.844C184.099 117.456 182.811 117.978 181.49 118.404V121.384L177.692 122.405L178.433 124.16L184.821 123.794L188.76 126.586L190.055 132.421L189.368 137.99L190.928 143.45L188.074 152.654L189.774 165.032L192.824 171.701L196.178 176.553L198.752 176.327L197.34 173.784L195.562 172.084L193.916 168.605L195.343 167.934L199.009 173.394L201.856 178.355L202.816 182.684L206.833 185.804L213.424 188.713L222.604 189.119L225.826 191.03L228.415 193.253L231.824 194.415L235.724 194.602L239.351 193.619C239.351 193.619 239.554 195.328 239.741 196.154C239.928 196.981 238.22 200.343 238.22 200.343L237.128 204.079L239.281 207.449L243.274 208.135L249.623 212.316L252.174 212.8L252.736 215.296L253.282 216.395C265.774 211.432 276.616 203.053 284.567 192.215L284.388 190.983L287.04 181.834L284.544 180.812L275.925 185.344Z" stroke="#3C3C3C" stroke-miterlimit="10"/>
<path d="M278.639 115.697L276.12 112.936L273 109.816L271.222 104.972L274.342 104.801L274.139 103.1L271.931 103.412L273.577 102.172L275.324 100.565L274.95 98.8962L272.36 96.681L271.136 93.1866C258.822 83.4918 243.679 78.0827 228.009 77.7814C212.339 77.4801 197 82.3031 184.322 91.5174L188.768 93.3894L187.099 96.9072L184.08 98.28L184.743 102.859L183.518 103.639L182.263 105.838L183.097 108.802L185.999 108.506L185.461 111.626L188.292 110.994L191.755 103.763L191.669 100.987L196.256 99.6138L196.981 97.3596L201.7 95.7996L201.568 92.859L205.031 91.9152C205.869 91.1641 206.775 90.4929 207.737 89.9106C208.745 89.9079 209.751 89.9783 210.748 90.1212L213.697 91.5642L217.191 90.7842L219.781 88.2882L223.681 87.7656C224.311 88.0099 224.99 88.1008 225.662 88.0308C226.496 87.8436 228.735 86.1198 228.735 86.1198L234.234 88.0464L236.574 89.1072L237.128 91.6032L239.702 91.377L240.201 89.7L242.588 90.2148L242.72 91.5876L238.04 94.029L241.683 97.0632L248.422 99.06L251.659 101.837L255.403 101.361L255.863 99.5124L257.119 98.8806L252.049 96.5406L249.311 96.798L251.332 95.6514L248.703 93.2646L251.495 92.4846L255.606 93.6702L257.33 97.4844L259.67 99.2394L262.244 103.74L266.503 105.589L267.719 111.088L272.111 112.741L272.345 114.605V116.883L274.014 119.66L274.677 121.087L277.618 120.955L278.327 117.835L278.639 115.697Z" stroke="#3C3C3C" stroke-miterlimit="10"/>
<path d="M277.079 98.4282L277.29 99.3876L277.048 102.235L278.07 104.458L280.051 104.715L280.753 107.882L278.569 107.492L280.067 116.602L278.881 120.713L281.221 125.081L283.826 126.594L285.823 135.595L289.544 142.108L293.062 146.921L297.118 147.069L297.71 143.442L298.155 142.896C297.872 139.922 297.405 136.968 296.759 134.051C293.783 120.523 286.947 108.148 277.079 98.4282Z" stroke="#3C3C3C" stroke-miterlimit="10"/>
<path d="M238.368 105.932L226.294 103.545L221.504 104.785L221.036 108.209L218.556 106.486L215.077 108.131L215.966 113.708L219.445 115.206L220.912 111.556L223.961 113.498L230.123 116.852L232.198 121.462L237.752 126.001L244.491 123.279L243.766 120.814L241.636 118.318L239.827 111.727L240.864 108.521L238.368 105.932Z" stroke="#3C3C3C" stroke-miterlimit="10"/>
<path d="M248.173 107.601L245.528 107.492L243.766 109.801L246.004 114.371L248.173 113.896V107.601Z" stroke="#3C3C3C" stroke-miterlimit="10"/>
<path d="M264.373 107.328L258.04 105.589L256.433 103.841L255.208 104.637L257.111 107.71L259.077 111.821L261.799 112.265L262.15 111.493L260.091 109.325L264.794 110.027L264.373 107.328Z" stroke="#3C3C3C" stroke-miterlimit="10"/>
<path d="M229.078 178.269L228.563 179.08L233.891 179.47L236.41 181.358L239.647 180.991L240.412 178.901L236.426 179.088L229.078 178.269Z" stroke="#3C3C3C" stroke-miterlimit="10"/>
<path d="M244.608 178.144L241.332 179.915L242.128 181.139L246.464 180.18L246.995 178.659L245.536 179.158L244.608 178.144Z" stroke="#3C3C3C" stroke-miterlimit="10"/>
<path opacity="0.2" d="M248.711 79.9812C255.267 92.6916 257.916 107.058 256.323 121.271C254.73 135.483 248.967 148.907 239.76 159.851C230.553 170.795 218.313 178.769 204.582 182.77C190.851 186.77 176.243 186.618 162.599 182.333C168.074 192.921 176.078 201.993 185.9 208.747C195.723 215.5 207.06 219.724 218.906 221.046C230.753 222.367 242.742 220.744 253.811 216.322C264.88 211.899 274.686 204.813 282.36 195.692C290.034 186.571 295.338 175.697 297.802 164.034C300.266 152.372 299.814 140.282 296.485 128.836C293.157 117.39 287.055 106.943 278.721 98.4208C270.388 89.8985 260.079 83.5647 248.711 79.9812Z" fill="black" stroke="#3C3C3C" stroke-linecap="round" stroke-linejoin="round"/>
</g>
<path d="M249.928 217.63C287.494 204.747 307.503 163.849 294.62 126.283C281.736 88.7174 240.838 68.7085 203.273 81.5922C165.707 94.4758 145.698 135.373 158.581 172.939C171.465 210.505 212.362 230.514 249.928 217.63Z" stroke="#3C3C3C" stroke-miterlimit="10"/>
<path opacity="0.18" d="M249.928 217.63C287.494 204.747 307.503 163.849 294.62 126.283C281.736 88.7174 240.838 68.7085 203.273 81.5922C165.707 94.4758 145.698 135.373 158.581 172.939C171.465 210.505 212.362 230.514 249.928 217.63Z" stroke="#3C3C3C" stroke-miterlimit="10"/>
<path d="M154.869 172.021C154.869 172.021 145.86 171.857 140.93 175.141C136.001 178.425 137.077 180.976 138.505 183.651C139.932 186.326 143.848 186.771 150.782 185.078C157.716 183.386 166.335 178.799 171.74 175.438C177.146 172.076 194.524 153.098 194.524 153.098L198.962 150.618C198.962 150.618 204.025 149.495 205.202 148.894C206.38 148.294 204.758 147.662 203.806 147.872C202.855 148.083 199.797 148.356 199.797 148.356C199.797 148.356 205.374 145.766 205.795 144.674C206.216 143.582 206.076 142.951 204.789 143.894C203.502 144.838 199.079 146.164 199.079 146.164C199.079 146.164 205.834 141.281 205.975 140.416C206.115 139.55 205.655 138.988 204.688 139.87C203.72 140.751 197.519 144.238 197.519 144.238L201.958 138.325C201.958 138.325 202.098 136.555 200.398 138.138C199.072 139.492 197.66 140.758 196.17 141.929C195.137 142.453 194.071 142.911 192.98 143.302C192.824 142.416 192.972 141.503 193.401 140.712C194.033 139.745 195.374 139.152 194.126 137.233C193.775 136.687 193.346 137.405 193.073 138.458C192.8 139.511 189.852 142.67 189.836 143.333C190.171 145.032 190.598 146.711 191.116 148.364C191.116 148.364 180.18 158.761 174.853 163.262C169.525 167.762 167.903 168.628 167.903 168.628L154.869 172.021Z" fill="white"/>
<mask id="mask4_20_2935" style="mask-type:luminance" maskUnits="userSpaceOnUse" x="137" y="137" width="70" height="50">
<path d="M154.869 172.021C154.869 172.021 145.86 171.857 140.93 175.141C136.001 178.425 137.077 180.976 138.505 183.651C139.932 186.326 143.848 186.771 150.782 185.078C157.716 183.386 166.335 178.799 171.74 175.438C177.146 172.076 194.524 153.098 194.524 153.098L198.962 150.618C198.962 150.618 204.025 149.495 205.202 148.894C206.38 148.294 204.758 147.662 203.806 147.872C202.855 148.083 199.797 148.356 199.797 148.356C199.797 148.356 205.374 145.766 205.795 144.674C206.216 143.582 206.076 142.951 204.789 143.894C203.502 144.838 199.079 146.164 199.079 146.164C199.079 146.164 205.834 141.281 205.975 140.416C206.115 139.55 205.655 138.988 204.688 139.87C203.72 140.751 197.519 144.238 197.519 144.238L201.958 138.325C201.958 138.325 202.098 136.555 200.398 138.138C199.072 139.492 197.66 140.758 196.17 141.929C195.137 142.453 194.071 142.911 192.98 143.302C192.824 142.416 192.972 141.503 193.401 140.712C194.033 139.745 195.374 139.152 194.126 137.233C193.775 136.687 193.346 137.405 193.073 138.458C192.8 139.511 189.852 142.67 189.836 143.333C190.171 145.032 190.598 146.711 191.116 148.364C191.116 148.364 180.18 158.761 174.853 163.262C169.525 167.762 167.903 168.628 167.903 168.628L154.869 172.021Z" fill="white"/>
</mask>
<g mask="url(#mask4_20_2935)">
<path opacity="0.3" d="M150.782 185.055C157.716 183.355 166.335 178.776 171.74 175.414C176.218 172.63 188.9 159.128 193.136 154.58L193.058 154.253C193.058 154.253 178.464 168.223 172.255 172.255C166.046 176.288 152.389 181.88 147.732 183.128C144.714 183.87 141.585 184.039 138.505 183.628C139.924 186.303 143.848 186.763 150.782 185.055Z" fill="#3C3C3C"/>
</g>
<path d="M154.869 172.021C154.869 172.021 145.86 171.857 140.93 175.141C136.001 178.425 137.077 180.976 138.505 183.651C139.932 186.326 143.848 186.771 150.782 185.078C157.716 183.386 166.335 178.799 171.74 175.438C177.146 172.076 194.524 153.098 194.524 153.098L198.962 150.618C198.962 150.618 204.025 149.495 205.202 148.894C206.38 148.294 204.758 147.662 203.806 147.872C202.855 148.083 199.797 148.356 199.797 148.356C199.797 148.356 205.374 145.766 205.795 144.674C206.216 143.582 206.076 142.951 204.789 143.894C203.502 144.838 199.079 146.164 199.079 146.164C199.079 146.164 205.834 141.281 205.975 140.416C206.115 139.55 205.655 138.988 204.688 139.87C203.72 140.751 197.519 144.238 197.519 144.238L201.958 138.325C201.958 138.325 202.098 136.555 200.398 138.138C199.072 139.492 197.66 140.758 196.17 141.929C195.137 142.453 194.071 142.911 192.98 143.302C192.824 142.416 192.972 141.503 193.401 140.712C194.033 139.745 195.374 139.152 194.126 137.233C193.775 136.687 193.346 137.405 193.073 138.458C192.8 139.511 189.852 142.67 189.836 143.333C190.171 145.032 190.598 146.711 191.116 148.364C191.116 148.364 180.18 158.761 174.853 163.262C169.525 167.762 167.903 168.628 167.903 168.628L154.869 172.021Z" stroke="#3C3C3C" stroke-linecap="round" stroke-linejoin="round"/>
<path d="M158.34 320.502L154.323 322.561L150.665 318.068C149.698 320.658 147.373 323.528 147.436 324.566C147.514 325.876 154.222 330.065 156.647 332.662C159.073 335.26 163.847 336.882 164.268 335.447C164.689 334.012 160.407 329.987 159.682 326.196C159.393 324.8 158.878 322.764 158.34 320.502Z" fill="#B2B2B2" stroke="#3C3C3C" stroke-linecap="round" stroke-linejoin="round"/>
</svg>
