<svg width="390" height="390" viewBox="0 0 390 390" fill="none" xmlns="http://www.w3.org/2000/svg">
<path d="M317.179 73.32C303.794 59.6076 288.46 48.204 272.165 40.2168C247.346 28.08 220.007 22.1988 192.66 21.84C112.765 20.826 106.681 119.192 82.1106 132.865C57.5406 146.539 13.0182 148.153 11.4816 202.855C10.5144 237.26 18.1818 272.641 39.7332 299.45C59.475 324.004 88.4754 336.445 117.055 345.641C149.136 355.961 183.167 366.093 216.895 359.128C251.534 351.975 275.87 323.248 304.317 303.818C322.257 291.587 338.302 278.717 349.354 259.093C350.68 256.753 351.92 254.358 353.098 251.932C367.918 221.442 370.804 186.272 362.638 153.278C355.337 123.669 338.801 95.472 317.179 73.32Z" fill="#4D6C40"/>
<path opacity="0.7" d="M317.179 73.32C303.794 59.6076 288.46 48.204 272.165 40.2168C247.346 28.08 220.007 22.1988 192.66 21.84C112.765 20.826 106.681 119.192 82.1106 132.865C57.5406 146.539 13.0182 148.153 11.4816 202.855C10.5144 237.26 18.1818 272.641 39.7332 299.45C59.475 324.004 88.4754 336.445 117.055 345.641C149.136 355.961 183.167 366.093 216.895 359.128C251.534 351.975 275.87 323.248 304.317 303.818C322.257 291.587 338.302 278.717 349.354 259.093C350.68 256.753 351.92 254.358 353.098 251.932C367.918 221.442 370.804 186.272 362.638 153.278C355.337 123.669 338.801 95.472 317.179 73.32Z" fill="white"/>
<path d="M251.238 75.9252C250.429 76.5751 249.486 77.0385 248.477 77.2824C245.708 77.8986 238.337 77.5866 237.089 80.9718C236.69 81.9876 236.069 82.9013 235.271 83.6463C234.474 84.3912 233.52 84.9485 232.479 85.2774C232.479 85.2774 226.637 85.5894 226.325 86.8374C226.013 88.0854 223.868 90.2226 223.868 90.2226H324.48C324.48 90.2226 327.865 84.9966 322.327 80.0826C317.483 75.777 308.63 82.2978 307.507 76.9626" stroke="#3C3C3C" stroke-linecap="round" stroke-linejoin="round"/>
<path d="M306.594 69.1314C305.471 65.0832 303.108 59.6232 298.311 57.5952C290.308 54.21 283.545 58.8276 281.697 63.4374C279.848 68.0472 278.624 71.1282 271.557 67.1268C264.49 63.1254 258.297 63.4374 256.175 68.6868C255.563 70.2065 254.798 71.6597 253.89 73.0236" stroke="#3C3C3C" stroke-linecap="round" stroke-linejoin="round"/>
<path d="M80.3789 129.558H115.315C115.315 129.558 117.359 126.438 114.013 123.419C110.666 120.401 104.146 126.025 105.082 119.699C105.082 119.699 104.302 111.899 99.4967 109.84C98.2601 109.273 96.8969 109.04 95.5423 109.163C94.1877 109.286 92.8889 109.761 91.7747 110.542" stroke="#3C3C3C" stroke-linecap="round" stroke-linejoin="round"/>
<path d="M89.4504 113.373C88.335 116.165 87.5862 118.053 83.3118 115.604C79.0374 113.155 75.309 113.373 74.0064 116.54C72.7038 119.707 71.0268 121.376 69.3264 121.742C67.626 122.109 63.1878 121.93 62.439 123.981C62.1958 124.595 61.8191 125.147 61.3362 125.598C60.8532 126.049 60.2761 126.386 59.6466 126.586C59.6466 126.586 56.1132 126.766 55.926 127.514C55.5538 128.278 55.0494 128.97 54.4362 129.558H74.88" stroke="#3C3C3C" stroke-linecap="round" stroke-linejoin="round"/>
<path d="M255.255 129.558H271.752C271.752 129.558 273.796 126.438 270.449 123.419C267.103 120.401 260.59 126.025 261.518 119.699C261.518 119.699 260.777 111.899 255.934 109.84C251.09 107.78 247.01 110.62 245.887 113.373C244.764 116.126 244.031 118.053 239.749 115.604C235.466 113.155 231.746 113.373 230.451 116.54C229.156 119.707 227.471 121.376 225.771 121.742C224.071 122.109 219.632 121.93 218.891 123.981C218.647 124.595 218.27 125.146 217.787 125.597C217.305 126.047 216.728 126.385 216.099 126.586C216.099 126.586 212.566 126.766 212.378 127.514C212.006 128.278 211.502 128.97 210.889 129.558H249.748" stroke="#3C3C3C" stroke-linecap="round" stroke-linejoin="round"/>
<g opacity="0.1">
<path d="M18.1194 181.093C21.1926 181.701 28.0176 180.055 28.0176 180.055C28.0176 180.055 25.5684 175.882 25.3812 175.64C23.1894 172.817 17.2926 168.62 13.5408 170.024C12.9235 170.27 12.3647 170.642 11.9005 171.117C11.4363 171.593 11.0772 172.16 10.8463 172.783C10.6154 173.406 10.5179 174.07 10.5601 174.733C10.6024 175.396 10.7835 176.043 11.0916 176.631C12.3162 179.174 15.5064 180.57 18.1194 181.093Z" fill="black"/>
<path d="M24.8196 200.46C27.8148 200.249 33.5478 197.145 34.008 196.895C35.7798 200.178 37.768 203.338 39.9594 206.357C41.223 208.12 42.5568 209.859 43.914 211.583C43.173 210.889 42.51 210.272 42.4086 210.194C39.5538 208.057 32.7678 205.6 29.5074 207.909C28.9767 208.309 28.536 208.816 28.2138 209.397C27.8916 209.978 27.6951 210.62 27.637 211.282C27.5789 211.944 27.6606 212.61 27.8766 213.239C28.0926 213.867 28.4383 214.443 28.8912 214.929C30.7476 217.051 34.1874 217.558 36.8472 217.37C39.507 217.183 44.4912 214.625 45.786 213.938C46.3164 214.594 46.8312 215.257 47.346 215.912C49.8888 219.032 52.4394 222.152 54.8496 225.319C55.6998 226.426 56.4876 227.549 57.291 228.665C56.6358 228.049 56.082 227.534 55.9884 227.464C53.1258 225.319 46.3476 222.862 43.0872 225.178C42.5545 225.577 42.1119 226.083 41.7882 226.664C41.4646 227.245 41.2673 227.888 41.2091 228.55C41.1509 229.213 41.2333 229.88 41.4507 230.509C41.6682 231.138 42.0158 231.713 42.471 232.198C44.3274 234.328 47.7672 234.827 50.427 234.64C53.0868 234.452 57.5874 232.144 59.1318 231.332C59.9118 232.502 60.6918 233.672 61.4094 234.842C61.8774 235.622 62.3766 236.402 62.7978 237.237L64.0926 239.678C64.8726 241.238 65.6526 242.892 66.3624 244.452C66.8616 245.536 67.3218 246.574 67.782 247.627C66.9474 246.511 65.2782 244.366 65.1144 244.202C62.6184 241.66 56.2848 238.204 52.7046 239.99C52.1196 240.305 51.6073 240.739 51.2009 241.264C50.7945 241.789 50.5032 242.394 50.3457 243.039C50.1883 243.684 50.1684 244.355 50.2872 245.008C50.406 245.662 50.6609 246.283 51.0354 246.831C52.5486 249.218 55.8714 250.232 58.5312 250.45C61.4562 250.692 67.3686 248.602 68.1018 248.336C68.8818 250.076 69.5838 251.768 70.239 253.383C70.733 254.569 71.1932 255.715 71.6196 256.823L74.0532 256.292C73.5332 255.07 72.9898 253.791 72.423 252.455C71.643 250.692 70.8084 248.82 69.9114 246.909C71.5829 245.779 73.1848 244.55 74.7084 243.227C77.181 244.959 82.8594 246.347 83.5926 246.558C83.265 248.422 82.9374 250.232 82.5942 251.94C82.4148 252.845 82.2354 253.695 82.056 254.545L84.63 253.984C84.7314 253.453 84.825 252.931 84.9186 252.377C85.2618 250.481 85.5816 248.477 85.8936 246.363C86.6736 246.363 92.9136 246.262 95.6046 245.021C98.0226 243.89 100.784 241.784 101.377 239.023C101.537 238.379 101.56 237.707 101.444 237.053C101.328 236.399 101.076 235.776 100.704 235.226C100.332 234.676 99.8477 234.21 99.2836 233.859C98.7195 233.508 98.0879 233.28 97.4298 233.189C93.4596 232.752 88.7172 238.189 87.2898 241.449C87.204 241.644 86.5098 243.836 86.0886 245.224C86.2056 244.366 86.3382 243.539 86.4474 242.658C86.6892 240.919 86.8764 239.179 87.087 237.299C87.1572 236.395 87.2274 235.474 87.2976 234.546C87.3678 233.618 87.3678 232.651 87.4068 231.691C87.4068 229.46 87.4068 227.206 87.2663 224.936C88.8264 225.139 94.2162 225.794 96.7824 225.046C99.3486 224.297 102.398 222.628 103.397 219.991C103.654 219.379 103.78 218.719 103.766 218.055C103.751 217.391 103.597 216.737 103.313 216.136C103.029 215.536 102.621 215.002 102.117 214.569C101.613 214.137 101.023 213.816 100.386 213.626C96.486 212.589 91.026 217.246 89.076 220.249C88.959 220.436 87.8124 222.745 87.204 224.024C87.126 222.659 87.048 221.302 86.9232 219.921C86.5566 215.943 86.0652 211.926 85.5972 207.917C85.449 206.684 85.3164 205.46 85.1838 204.235C85.722 204.313 92.157 205.234 95.0351 204.391C97.5936 203.611 100.643 201.973 101.65 199.337C101.906 198.724 102.03 198.064 102.015 197.399C101.999 196.735 101.844 196.082 101.559 195.481C101.275 194.881 100.867 194.347 100.362 193.915C99.8577 193.483 99.2678 193.161 98.631 192.972C94.7309 191.935 89.271 196.599 87.3288 199.594C87.1806 199.82 85.5348 203.151 85.1604 204.017C84.864 201.31 84.591 198.619 84.435 195.952C84.2009 192.352 84.2009 188.741 84.435 185.141C84.6846 185.18 91.3926 186.17 94.341 185.305C96.8994 184.525 99.9569 182.894 100.955 180.25C101.212 179.638 101.337 178.978 101.322 178.314C101.306 177.65 101.152 176.997 100.868 176.397C100.584 175.797 100.177 175.263 99.6734 174.83C99.1698 174.398 98.5807 174.076 97.9446 173.885C94.0446 172.856 88.5846 177.512 86.6346 180.515C86.4864 180.749 84.7158 184.322 84.4428 185C84.4428 184.79 84.4428 184.571 84.4428 184.361C84.7772 180.758 85.4324 177.192 86.4006 173.706C86.9076 171.772 87.5082 169.954 88.1244 168.199C89.3568 168.511 94.9962 169.876 97.734 169.393C100.472 168.909 103.576 167.606 104.863 165.095C105.185 164.514 105.38 163.872 105.437 163.21C105.494 162.549 105.412 161.883 105.195 161.256C104.978 160.628 104.631 160.053 104.178 159.569C103.724 159.084 103.174 158.7 102.562 158.441C98.8338 156.983 92.8512 161.015 90.597 163.784C90.48 163.933 89.4036 165.602 88.6314 166.826C88.9277 166.046 89.2086 165.22 89.505 164.486C90.6048 161.671 91.7826 159.159 92.8434 156.936C93.4596 155.68 94.0368 154.596 94.5906 153.512C95.9556 153.192 101.455 151.819 103.623 150.158C105.791 148.496 107.983 145.883 107.968 143.06C107.986 142.395 107.865 141.735 107.611 141.12C107.357 140.506 106.977 139.952 106.495 139.495C106.013 139.037 105.44 138.686 104.814 138.464C104.187 138.243 103.521 138.155 102.859 138.208C98.8806 138.637 95.4252 144.963 94.7076 148.465C94.6452 148.762 94.2084 153.605 94.2786 153.59H94.3566C93.8028 154.588 93.2256 155.657 92.6094 156.842C91.5018 159.042 90.2694 161.522 89.0994 164.338C87.8228 167.324 86.7211 170.382 85.8 173.495C84.7421 177.005 84.0007 180.602 83.5848 184.244C83.581 184.288 83.581 184.332 83.5848 184.376C83.3508 183.23 82.602 180.04 82.5162 179.798C81.315 176.436 77.0172 170.648 73.0158 170.773C72.354 170.814 71.7082 170.994 71.1202 171.301C70.5323 171.607 70.0153 172.034 69.6028 172.553C69.1903 173.072 68.8914 173.672 68.7256 174.314C68.5597 174.956 68.5305 175.626 68.64 176.28C69.0144 179.072 71.604 181.389 73.9284 182.707C76.5492 184.181 83.0466 184.751 83.5614 184.798C83.2281 188.514 83.1421 192.248 83.304 195.975C83.3898 198.143 83.538 200.327 83.7174 202.519C83.4912 201.529 83.2728 200.647 83.2338 200.53C82.0326 197.168 77.727 191.381 73.7334 191.506C73.0704 191.545 72.4231 191.723 71.8337 192.028C71.2442 192.334 70.7258 192.761 70.3122 193.28C69.8987 193.8 69.5992 194.401 69.4333 195.044C69.2675 195.687 69.239 196.358 69.3498 197.012C69.7242 199.813 72.3138 202.129 74.6382 203.44C76.9626 204.75 82.524 205.374 83.9982 205.514C84.0762 206.349 84.1386 207.191 84.2244 208.026C84.6066 212.051 85.0043 216.06 85.2852 220.015C85.3866 221.403 85.4256 222.776 85.4802 224.149C85.2696 223.275 85.0902 222.542 85.0512 222.433C83.85 219.063 79.5912 213.275 75.5508 213.4C74.8875 213.44 74.2401 213.619 73.6506 213.926C73.0611 214.233 72.5428 214.66 72.1293 215.18C71.7159 215.7 71.4165 216.302 71.2507 216.945C71.085 217.588 71.0565 218.26 71.1672 218.915C71.5416 221.715 74.139 224.032 76.4556 225.342C78.7722 226.652 83.8032 227.214 85.5426 227.386C85.5426 228.79 85.5426 230.201 85.5426 231.566C85.4802 232.502 85.488 233.399 85.3788 234.335C85.2696 235.271 85.1994 236.176 85.1136 237.081C84.8718 238.828 84.6456 240.622 84.3336 242.315C84.1542 243.493 83.9592 244.616 83.7642 245.747C83.6862 244.358 83.4678 241.644 83.4288 241.426C82.7061 238.364 81.2103 235.539 79.0842 233.22C79.0227 232.876 78.926 232.538 78.7956 232.214C78.575 231.587 78.2248 231.014 77.7679 230.532C77.311 230.05 76.7576 229.67 76.1439 229.416C75.5301 229.162 74.8697 229.04 74.2057 229.059C73.5417 229.077 72.8891 229.235 72.2904 229.523C68.7336 231.348 67.782 238.501 68.3904 242.003C68.3904 242.206 69.0534 244.421 69.4668 245.809C69.1002 245.029 68.7492 244.249 68.3592 243.469C67.5792 241.909 66.7992 240.349 65.9334 238.649L64.5918 236.239C64.155 235.459 63.6012 234.616 63.102 233.797C61.9086 231.917 60.606 230.069 59.2566 228.244C60.645 227.573 65.4966 225.124 67.2594 223.08C69.0222 221.036 70.6056 217.971 69.9894 215.218C69.8619 214.567 69.5994 213.95 69.2189 213.407C68.8383 212.864 68.3481 212.407 67.78 212.065C67.2118 211.724 66.5783 211.505 65.9203 211.423C65.2623 211.341 64.5945 211.398 63.96 211.591C60.1692 212.862 58.149 219.788 58.188 223.353C58.188 223.579 58.5078 226.138 58.7028 227.542C57.9228 226.45 57.0726 225.35 56.2068 224.266C53.7108 221.146 51.0822 218.072 48.477 214.991C47.697 214.048 46.917 213.096 46.137 212.152C46.6284 211.918 52.5018 209.134 54.4362 206.84C56.16 204.805 57.7824 201.731 57.1662 198.978C57.0428 198.325 56.7831 197.705 56.4039 197.159C56.0247 196.613 55.5346 196.153 54.9656 195.809C54.3966 195.465 53.7615 195.245 53.1017 195.164C52.442 195.082 51.7724 195.141 51.1368 195.335C47.346 196.599 45.3258 203.525 45.3648 207.098C45.3648 207.363 45.8328 211.045 45.9888 211.973C44.2572 209.89 42.5412 207.792 40.9422 205.655C38.7644 202.78 36.7739 199.768 34.983 196.638C35.2092 196.529 41.3478 193.651 43.329 191.303C45.0528 189.267 46.683 186.194 46.059 183.44C45.9355 182.788 45.6759 182.169 45.2973 181.624C44.9186 181.078 44.4293 180.619 43.8612 180.275C43.2931 179.931 42.6589 179.711 42.0001 179.629C41.3413 179.547 40.6725 179.604 40.0374 179.798C36.2388 181.061 34.2186 187.988 34.2576 191.56C34.2576 191.841 34.7646 195.803 34.905 196.513C34.8036 196.326 34.671 196.154 34.5696 195.967C32.8662 192.775 31.4464 189.439 30.3264 185.999C29.6868 184.111 29.1798 182.263 28.7664 180.453C29.9676 180.04 35.4198 178.066 37.44 176.147C39.4602 174.229 41.34 171.467 41.0124 168.636C40.9623 167.973 40.7732 167.329 40.4571 166.744C40.1411 166.159 39.7054 165.648 39.1784 165.243C38.6514 164.838 38.045 164.549 37.3987 164.395C36.7524 164.24 36.0807 164.223 35.4276 164.346C31.5276 165.188 28.7508 171.85 28.4076 175.406C28.4076 175.601 28.4076 177.583 28.4544 179.033C28.2594 178.214 28.0488 177.372 27.8772 176.584C27.2376 173.628 26.832 170.882 26.4966 168.449C26.3172 167.06 26.1846 165.805 26.0676 164.627C27.027 163.605 30.849 159.424 31.746 156.827C32.643 154.229 33.0252 150.852 31.4574 148.512C31.1059 147.948 30.6397 147.464 30.089 147.091C29.5383 146.719 28.9154 146.466 28.2608 146.35C27.6062 146.234 26.9345 146.256 26.2892 146.416C25.644 146.577 25.0396 146.871 24.5154 147.28C21.4422 149.83 22.0506 157.022 23.3766 160.337C23.4858 160.625 25.7946 164.9 25.8414 164.845L25.9038 164.783C25.9896 165.922 26.0988 167.123 26.2392 168.464C26.5278 170.906 26.871 173.667 27.4482 176.654C28.0428 179.874 28.8241 183.057 29.7882 186.186C30.842 189.694 32.2072 193.1 33.8676 196.365C33.8676 196.365 33.9144 196.443 33.93 196.482C33.15 195.647 30.7242 193.401 30.5214 193.253C27.6588 191.108 20.8806 188.651 17.6202 190.967C17.0875 191.366 16.6449 191.872 16.3212 192.453C15.9976 193.034 15.8003 193.677 15.7421 194.34C15.6839 195.002 15.7663 195.67 15.9837 196.298C16.2012 196.927 16.5488 197.502 17.004 197.987C18.72 200.125 22.1598 200.624 24.8196 200.46Z" fill="black"/>
<path d="M87.8124 167.474C87.8826 167.474 88.0698 162.646 88.0464 162.341C87.7734 158.777 85.1526 152.061 81.2682 151.125C80.6181 150.988 79.9465 150.99 79.2969 151.129C78.6474 151.269 78.0346 151.544 77.4983 151.936C76.9619 152.328 76.5142 152.829 76.184 153.405C75.8539 153.982 75.6488 154.621 75.582 155.282C75.2076 158.083 77.0952 161 78.9828 162.88C81.2058 165.087 87.8124 167.474 87.8124 167.474Z" fill="black"/>
</g>
<g opacity="0.1">
<path d="M365.867 248.266C363.23 248.36 357.778 246.082 357.778 246.082C357.778 246.082 360.368 242.962 360.563 242.767C362.755 240.716 368.207 238.048 371.147 239.647C371.628 239.934 372.042 240.318 372.365 240.775C372.687 241.232 372.91 241.751 373.019 242.3C373.128 242.848 373.12 243.414 372.997 243.959C372.873 244.504 372.636 245.018 372.302 245.466C370.937 247.447 368.105 248.18 365.867 248.266Z" fill="black"/>
<path d="M357.716 263.445C355.251 262.876 350.906 259.545 350.555 259.256C348.637 261.75 346.552 264.111 344.315 266.323C343.028 267.626 341.695 268.889 340.337 270.145C341.039 269.662 341.671 269.24 341.773 269.194C344.432 267.79 350.392 266.659 352.794 269.014C353.182 269.417 353.481 269.896 353.672 270.421C353.862 270.947 353.94 271.507 353.901 272.064C353.861 272.622 353.704 273.165 353.441 273.658C353.178 274.151 352.814 274.583 352.373 274.927C350.548 276.448 347.623 276.401 345.439 275.894C343.255 275.387 339.448 272.594 338.465 271.846C337.935 272.321 337.42 272.805 336.905 273.273C334.378 275.551 331.843 277.805 329.417 280.098C328.567 280.878 327.756 281.728 326.945 282.547C327.569 282.126 328.099 281.767 328.185 281.72C330.845 280.324 336.812 279.193 339.214 281.549C339.602 281.95 339.901 282.429 340.092 282.954C340.282 283.479 340.36 284.038 340.32 284.595C340.281 285.152 340.124 285.694 339.861 286.187C339.598 286.679 339.234 287.111 338.793 287.453C336.968 289.013 334.043 288.935 331.851 288.428C329.659 287.921 326.235 285.394 325.057 284.528C324.277 285.394 323.443 286.268 322.717 287.141C322.218 287.75 321.703 288.304 321.243 288.951L319.839 290.807C318.997 292.016 318.115 293.264 317.32 294.466C316.758 295.3 316.243 296.104 315.713 296.915C316.555 296.096 318.232 294.575 318.388 294.427C320.806 292.64 326.524 290.62 329.261 292.578C329.705 292.918 330.073 293.347 330.34 293.838C330.608 294.329 330.769 294.871 330.814 295.428C330.859 295.986 330.786 296.546 330.601 297.074C330.415 297.601 330.121 298.084 329.737 298.49C328.177 300.269 325.26 300.674 323.021 300.495C320.564 300.308 315.931 297.781 315.354 297.461C314.488 298.802 313.661 300.113 312.905 301.361C312.343 302.281 311.805 303.178 311.298 304.036L309.348 303.256C309.933 302.305 310.557 301.322 311.212 300.284C312.086 298.919 313.045 297.484 314.044 296.01C312.805 294.849 311.638 293.615 310.549 292.313C308.264 293.42 303.358 293.873 302.749 293.873C302.749 295.433 302.804 296.993 302.866 298.475C302.866 299.255 302.929 299.988 302.96 300.713L300.901 299.933C300.901 299.473 300.901 299.029 300.901 298.553C300.901 296.93 300.901 295.199 300.901 293.428C300.261 293.319 295.051 292.406 293.007 291.018C291.151 289.754 289.107 287.633 289.013 285.262C288.965 284.704 289.035 284.143 289.218 283.615C289.401 283.086 289.693 282.603 290.076 282.195C290.459 281.787 290.923 281.465 291.439 281.248C291.955 281.032 292.51 280.927 293.069 280.94C296.423 281.112 299.637 286.26 300.417 289.162C300.464 289.333 300.752 291.244 300.916 292.461C300.916 291.728 300.916 291.026 300.955 290.277C300.955 288.803 301.064 287.329 301.135 285.745C301.205 284.965 301.267 284.185 301.33 283.405C301.392 282.625 301.525 281.845 301.626 281.018C301.883 279.162 302.242 277.298 302.64 275.426C301.345 275.426 296.751 275.215 294.715 274.248C292.679 273.281 290.378 271.495 289.895 269.162C289.764 268.619 289.749 268.055 289.851 267.506C289.953 266.956 290.169 266.435 290.485 265.974C290.801 265.514 291.211 265.125 291.687 264.833C292.163 264.541 292.695 264.353 293.249 264.28C296.595 263.936 300.55 268.538 301.759 271.3C301.837 271.471 302.484 273.546 302.812 274.685C303.061 273.562 303.303 272.438 303.592 271.315C304.426 268.055 305.37 264.787 306.298 261.518C306.587 260.512 306.852 259.514 307.133 258.515C306.673 258.515 301.205 258.414 298.927 257.33C296.899 256.363 294.583 254.569 294.107 252.244C293.974 251.701 293.957 251.136 294.058 250.586C294.158 250.035 294.374 249.513 294.69 249.052C295.007 248.591 295.418 248.202 295.895 247.911C296.372 247.619 296.906 247.432 297.461 247.361C300.807 247.018 304.762 251.62 305.971 254.381C306.056 254.584 306.985 257.572 307.18 258.336C307.788 256.136 308.373 253.929 308.857 251.737C309.532 248.779 310.014 245.78 310.3 242.759C310.081 242.759 304.379 242.681 302.047 241.566C300.019 240.607 297.703 238.813 297.219 236.488C297.087 235.945 297.071 235.379 297.172 234.829C297.273 234.279 297.489 233.756 297.806 233.295C298.122 232.834 298.532 232.444 299.009 232.152C299.485 231.859 300.018 231.671 300.573 231.598C303.927 231.254 307.874 235.864 309.083 238.618C309.184 238.836 310.175 242.05 310.315 242.642C310.315 242.463 310.362 242.284 310.378 242.112C310.58 239.072 310.509 236.021 310.167 232.994C310.003 231.325 309.754 229.733 309.473 228.189C308.412 228.283 303.545 228.665 301.33 227.9C299.114 227.136 296.712 225.638 295.979 223.376C295.789 222.85 295.711 222.29 295.752 221.733C295.792 221.175 295.95 220.632 296.214 220.139C296.478 219.646 296.843 219.215 297.285 218.872C297.727 218.529 298.236 218.283 298.779 218.15C302.063 217.441 306.501 221.582 308.006 224.188C308.084 224.328 308.786 225.857 309.231 226.98C309.098 226.286 308.966 225.568 308.825 224.905C308.287 222.417 307.64 220.171 307.055 218.189C306.712 217.066 306.376 216.052 306.056 215.069C304.964 214.617 300.596 212.729 299.036 211.076C297.476 209.422 295.979 206.942 296.369 204.602C296.44 204.047 296.629 203.513 296.921 203.036C297.213 202.558 297.602 202.148 298.064 201.831C298.526 201.515 299.049 201.299 299.599 201.198C300.15 201.098 300.716 201.115 301.259 201.248C304.504 202.137 306.532 207.854 306.673 210.857C306.673 211.123 306.4 215.194 306.345 215.171H306.275C306.602 216.076 306.946 217.043 307.297 218.111C307.928 220.085 308.623 222.323 309.215 224.804C309.891 227.476 310.412 230.184 310.775 232.916C311.184 235.973 311.323 239.061 311.189 242.143C311.184 242.179 311.184 242.216 311.189 242.252C311.532 241.324 312.585 238.774 312.686 238.586C314.129 235.958 318.474 231.715 321.781 232.346C322.327 232.468 322.84 232.703 323.289 233.036C323.738 233.369 324.112 233.793 324.386 234.28C324.66 234.767 324.829 235.306 324.882 235.863C324.934 236.419 324.869 236.98 324.691 237.51C324.004 239.788 321.571 241.41 319.441 242.19C317.062 243.071 311.587 242.674 311.158 242.642C310.89 245.769 310.415 248.875 309.738 251.94C309.379 253.734 308.958 255.528 308.521 257.322C308.841 256.542 309.137 255.832 309.192 255.762C310.643 253.126 314.987 248.89 318.287 249.522C318.833 249.643 319.347 249.877 319.797 250.21C320.246 250.543 320.621 250.966 320.895 251.454C321.17 251.941 321.338 252.481 321.39 253.038C321.442 253.594 321.376 254.156 321.196 254.686C320.51 256.955 318.076 258.539 315.947 259.319C313.817 260.099 309.137 259.873 307.897 259.787C307.726 260.473 307.554 261.167 307.375 261.846C306.517 265.138 305.651 268.421 304.894 271.666C304.629 272.813 304.403 273.944 304.184 275.083C304.473 274.381 304.715 273.796 304.762 273.71C306.212 271.073 310.557 266.838 313.864 267.47C314.41 267.591 314.923 267.826 315.372 268.16C315.821 268.493 316.195 268.917 316.469 269.403C316.743 269.89 316.912 270.43 316.965 270.986C317.017 271.542 316.952 272.104 316.774 272.633C316.087 274.903 313.654 276.487 311.516 277.267C309.379 278.047 305.167 277.836 303.716 277.75C303.521 278.92 303.326 280.09 303.186 281.237C303.116 282.017 302.991 282.797 302.952 283.577L302.812 285.917C302.773 287.399 302.726 288.92 302.726 290.363C302.726 291.369 302.726 292.328 302.726 293.288C302.975 292.149 303.506 289.926 303.584 289.747C304.584 287.301 306.196 285.152 308.264 283.507C308.363 283.235 308.488 282.974 308.638 282.727C308.906 282.237 309.274 281.808 309.718 281.47C310.163 281.131 310.673 280.89 311.216 280.761C311.76 280.632 312.324 280.619 312.873 280.723C313.422 280.826 313.943 281.044 314.402 281.362C317.117 283.358 316.953 289.427 315.962 292.282C315.908 292.445 315.097 294.208 314.566 295.308C314.98 294.707 315.346 294.122 315.799 293.506C316.641 292.297 317.515 291.104 318.458 289.825L319.894 287.999C320.362 287.383 320.931 286.783 321.454 286.166C322.702 284.77 324.028 283.405 325.393 282.064C324.324 281.323 320.596 278.639 319.433 276.713C318.271 274.786 317.327 272.033 318.217 269.81C318.407 269.288 318.704 268.812 319.089 268.412C319.475 268.012 319.94 267.697 320.454 267.488C320.968 267.279 321.521 267.179 322.076 267.196C322.631 267.213 323.176 267.346 323.677 267.587C326.656 269.147 327.413 275.168 326.906 278.132C326.906 278.312 326.266 280.402 325.915 281.533C326.742 280.753 327.561 279.934 328.427 279.154C330.923 276.892 333.512 274.685 336.086 272.477L338.426 270.426C338.044 270.169 333.536 267.072 332.233 264.911C331.071 262.993 330.135 260.231 331.016 258.016C331.207 257.495 331.504 257.018 331.889 256.618C332.274 256.218 332.739 255.903 333.253 255.693C333.767 255.483 334.319 255.383 334.874 255.399C335.429 255.415 335.975 255.546 336.476 255.785C339.456 257.345 340.213 263.367 339.706 266.331C339.706 266.557 338.793 269.552 338.536 270.301C340.259 268.804 341.96 267.283 343.574 265.723C345.807 263.61 347.897 261.35 349.83 258.96C349.651 258.835 344.939 255.629 343.59 253.414C342.428 251.488 341.484 248.734 342.365 246.511C342.557 245.986 342.857 245.507 343.245 245.105C343.634 244.702 344.102 244.386 344.62 244.177C345.139 243.967 345.695 243.869 346.254 243.888C346.813 243.907 347.362 244.044 347.864 244.288C350.844 245.848 351.601 251.87 351.094 254.834C351.055 255.068 350.111 258.289 349.9 258.859C350.009 258.726 350.134 258.593 350.243 258.453C352.088 256.03 353.714 253.449 355.103 250.739C355.883 249.249 356.554 247.783 357.17 246.347C356.226 245.84 351.959 243.469 350.54 241.613C349.12 239.756 347.935 237.175 348.566 234.889C348.697 234.345 348.94 233.834 349.281 233.391C349.623 232.947 350.053 232.58 350.546 232.315C351.038 232.049 351.581 231.89 352.139 231.848C352.698 231.807 353.258 231.884 353.785 232.073C356.905 233.298 358.332 239.195 358.153 242.213C358.153 242.377 357.856 244.023 357.638 245.216C357.903 244.569 358.192 243.898 358.418 243.266C359.338 240.926 360.04 238.664 360.649 236.683C360.984 235.56 361.265 234.53 361.514 233.563C360.851 232.58 358.231 228.602 357.833 226.34C357.435 224.078 357.568 221.2 359.182 219.469C359.549 219.046 360 218.706 360.507 218.47C361.014 218.233 361.564 218.106 362.124 218.097C362.683 218.087 363.237 218.195 363.752 218.414C364.267 218.633 364.729 218.958 365.11 219.367C367.333 221.902 365.89 227.791 364.33 230.365C364.198 230.591 361.709 233.836 361.678 233.789L361.631 233.727C361.413 234.663 361.156 235.654 360.851 236.738C360.36 238.68 359.674 240.958 358.8 243.36C357.884 245.958 356.816 248.5 355.602 250.973C354.259 253.749 352.669 256.398 350.852 258.89C350.831 258.92 350.807 258.949 350.782 258.976C351.562 258.398 353.863 256.846 354.05 256.745C356.71 255.349 362.677 254.21 365.079 256.565C365.467 256.968 365.766 257.447 365.957 257.973C366.147 258.498 366.225 259.058 366.186 259.615C366.146 260.173 365.989 260.716 365.726 261.209C365.463 261.702 365.099 262.134 364.658 262.478C362.833 263.999 359.9 263.96 357.716 263.445Z" fill="black"/>
<path d="M309.769 227.659C309.707 227.659 310.198 223.61 310.261 223.353C310.963 220.436 314.036 215.202 317.39 214.945C317.948 214.917 318.506 215.008 319.026 215.211C319.547 215.413 320.02 215.723 320.413 216.121C320.806 216.518 321.11 216.994 321.307 217.517C321.504 218.04 321.588 218.599 321.555 219.157C321.5 221.497 319.543 223.704 317.717 225.014C315.572 226.551 309.769 227.651 309.769 227.659Z" fill="black"/>
</g>
<path d="M162.747 26.0208L172.497 118.677" stroke="#3C3C3C" stroke-linecap="round" stroke-linejoin="round"/>
<path d="M191.989 45.708L184.72 47.3772L178.066 60.5358L167.528 57.525L167.232 60.3954L180.336 65.832L185.024 59.3268V70.6758L199.095 71.2842L201.973 58.422L207.113 62.9616V74.9112H210.14L211.957 59.9352L203.939 46.9248L191.989 45.708Z" fill="white" stroke="#3C3C3C" stroke-linecap="round" stroke-linejoin="round"/>
<path d="M185.024 59.3268L184.915 52.923" stroke="#3C3C3C" stroke-linecap="round" stroke-linejoin="round"/>
<path d="M191.88 49.92L193.853 53.625C193.853 53.625 199.313 55.3566 200.281 55.5984C201.248 55.8402 204.235 54.8574 206.7 54.366C209.165 53.8746 217.082 57.8214 217.082 57.8214L224 58.071L220.295 53.625L206.95 51.6438L200.031 53.8746L195.351 52.6344L196.349 50.7L194.126 47.2368L191.88 49.92Z" fill="#4D6C40" stroke="#3C3C3C" stroke-linecap="round" stroke-linejoin="round"/>
<path d="M192.59 44.6472C192.188 44.5712 191.772 44.6562 191.432 44.8838C191.092 45.1114 190.855 45.4634 190.772 45.864C190.476 47.3772 190.172 51.1602 190.172 51.1602L193.799 50.0994L198.042 51.9168C198.042 51.9168 199.399 47.9778 198.643 46.6206C197.886 45.2634 194.407 43.4382 192.59 44.6472Z" fill="white" stroke="#3C3C3C" stroke-linecap="round" stroke-linejoin="round"/>
<path d="M191.833 42.5334C191.833 42.5334 192.286 46.7688 192.442 48.282C192.598 49.7952 193.502 52.065 194.103 51.6126C194.704 51.1602 196.825 46.9326 196.825 46.9326L197.886 44.0622L191.833 42.5334Z" fill="white" stroke="#3C3C3C" stroke-linecap="round" stroke-linejoin="round"/>
<path d="M191.88 36.348C191.88 36.348 190.554 36.231 190.554 38.3994C190.554 40.5678 191.513 40.6848 191.513 40.6848L191.88 36.348Z" fill="white" stroke="#3C3C3C" stroke-linecap="round" stroke-linejoin="round"/>
<path d="M200.749 38.1576C200.92 38.1668 201.088 38.2135 201.24 38.2945C201.392 38.3754 201.524 38.4887 201.627 38.6262C201.731 38.7638 201.802 38.9223 201.838 39.0906C201.874 39.259 201.872 39.433 201.833 39.6006C201.591 40.9266 199.306 42.7206 199.306 42.7206L200.749 38.1576Z" fill="white" stroke="#3C3C3C" stroke-linecap="round" stroke-linejoin="round"/>
<path d="M196.373 31.98C196.373 31.98 193.955 31.3716 192.59 34.2498C191.225 37.128 191.529 40.6068 191.81 42.5724C192.091 44.538 193.931 45.4428 195.749 45.4428C197.566 45.4428 200.281 41.6676 200.889 38.7894C201.497 35.9112 201.061 31.98 196.373 31.98Z" fill="white" stroke="#3C3C3C" stroke-linecap="round" stroke-linejoin="round"/>
<path d="M164.603 55.848L165.204 60.3876L167.926 60.6918L167.474 55.5438L164.603 55.848Z" fill="white" stroke="#3C3C3C" stroke-linecap="round" stroke-linejoin="round"/>
<path d="M167.528 55.7778L168.628 55.6296L168.847 58.0476L167.747 58.1958L167.528 55.7778Z" fill="white" stroke="#3C3C3C" stroke-linecap="round" stroke-linejoin="round"/>
<path d="M207.113 74.9112L205.46 77.5008L205.889 80.0982L207.332 79.9578L209.789 79.092L210.14 74.9112H207.113Z" fill="white" stroke="#3C3C3C" stroke-linecap="round" stroke-linejoin="round"/>
<path d="M185.024 70.6758L183.955 75.3402L172.115 90.9246L180.055 113.303L182.075 112.866L180.344 91.5018L190.016 81.2526L191.17 81.978L191.201 93.4128L202.285 112.148L204.594 111.563L199.399 93.522L199.688 74.3262L199.095 71.2842L185.024 70.6758Z" fill="#3C3C3C" stroke="#3C3C3C" stroke-linecap="round" stroke-linejoin="round"/>
<path d="M180.055 113.303L178.324 115.752C178.324 115.752 175.578 117.055 175.149 117.772C174.72 118.49 177.489 118.349 177.489 118.349L180.664 118.061L183.986 115.9L182.107 112.866L180.055 113.303Z" fill="white" stroke="#3C3C3C" stroke-linecap="round" stroke-linejoin="round"/>
<path d="M163.16 29.3202C163.16 29.3202 161.71 32.6274 155.719 34.8972C149.729 37.167 141.055 38.4072 138.785 43.1574C136.516 47.9076 136.516 47.502 136.102 50.1774C135.881 51.7413 135.155 53.1902 134.035 54.3036C134.035 54.3036 136.102 54.5142 137.155 53.0712C138.208 51.6282 138.606 47.4942 140.275 46.8702C141.944 46.2462 144.979 45.24 144.979 45.24C144.979 45.24 142.093 47.7204 141.859 48.9606C141.625 50.2008 141.445 53.0946 141.032 54.951C140.852 55.9659 140.358 56.8989 139.62 57.6186C139.62 57.6186 142.303 57.6186 143.13 55.7622C143.957 53.9058 143.13 51.4254 145.813 49.5612C148.496 47.697 151.39 48.5316 155.953 48.7344C160.516 48.9372 164.837 46.2618 164.837 46.2618L163.16 29.3202Z" fill="#4D6C40" stroke="#3C3C3C" stroke-linecap="round" stroke-linejoin="round"/>
<path d="M202.285 112.148L200.296 118.755L205.234 118.56L204.594 111.563L202.285 112.148Z" fill="white" stroke="#3C3C3C" stroke-linecap="round" stroke-linejoin="round"/>
<path d="M194.719 37.7754C194.633 38.1654 194.36 38.4384 194.095 38.3838C193.83 38.3292 193.69 37.9626 193.775 37.6038C193.861 37.245 194.134 36.9408 194.399 36.9954C194.665 37.05 194.797 37.3854 194.719 37.7754Z" fill="#3C3C3C"/>
<path d="M198.331 38.6178C198.245 39.0078 197.972 39.2808 197.707 39.2262C197.441 39.1716 197.301 38.805 197.387 38.4462C197.473 38.0874 197.746 37.7832 198.011 37.8378C198.276 37.8924 198.409 38.22 198.331 38.6178Z" fill="#3C3C3C"/>
<path d="M195.928 38.2746L194.969 41.1684H196.537" stroke="#3C3C3C" stroke-linecap="round" stroke-linejoin="round"/>
<path d="M193.768 42.0108C193.768 42.0108 194.61 43.4538 196.778 42.6114" stroke="#3C3C3C" stroke-linecap="round" stroke-linejoin="round"/>
<path d="M193.643 35.7474C193.956 35.578 194.319 35.5212 194.669 35.5865C195.02 35.6518 195.338 35.8352 195.569 36.1062" stroke="#3C3C3C" stroke-linecap="round" stroke-linejoin="round"/>
<path d="M197.379 36.5898C197.59 36.4741 197.823 36.4042 198.063 36.3848C198.302 36.3654 198.544 36.3968 198.77 36.4771C198.997 36.5573 199.205 36.6846 199.379 36.8506C199.553 37.0165 199.69 37.2174 199.781 37.44" stroke="#3C3C3C" stroke-linecap="round" stroke-linejoin="round"/>
<path d="M191.357 35.3886L200.023 34.32C200.023 34.32 199.664 35.763 200.148 36.1218C200.632 36.4806 200.749 38.1732 200.749 38.1732L200.39 40.0998L202.316 36.7302C202.316 36.7302 202.917 34.0782 202.433 33.2358C202.275 32.9816 202.065 32.7638 201.816 32.5971C201.567 32.4304 201.286 32.3184 200.99 32.2686C200.475 31.4882 199.748 30.8707 198.894 30.4881C198.04 30.1055 197.096 29.9737 196.17 30.108C192.8 30.4668 191.357 32.1516 191.357 33.4776V35.3886Z" fill="#3C3C3C" stroke="#3C3C3C" stroke-linecap="round" stroke-linejoin="round"/>
<path d="M184.961 362.856L200.249 275.129L142.545 222.175L163.488 150.821L141.071 151.32L131.602 159.791L111.813 159.307L109.138 168.956L103.709 168.277L101.837 171.662L92.5782 190.148L87.7656 208.611L69.8256 231.036L67.86 283.951L38.9376 325.697L29.8428 362.856H184.961Z" fill="#808080" stroke="#3C3C3C" stroke-linecap="round" stroke-linejoin="round"/>
<path d="M315.167 362.856L296.018 320.869L327.218 341.656V308.389L308.88 286.666L311.594 262.228L283.748 209.274L282.36 190.944L272.86 182.114L224.094 185.64L220.615 168.519L189.415 150.868L170.695 196.193L153.449 203.822L165.602 220.483L163.636 233.688L167.7 254.077L99.84 269.014C99.84 269.014 99.1614 301.603 99.1614 304.317C99.1614 307.031 85.5816 322.647 85.5816 322.647L84.9498 362.856H315.167Z" fill="#ABABAB" stroke="#3C3C3C" stroke-linecap="round" stroke-linejoin="round"/>
<path d="M352.958 362.856L344.854 359.307L334.667 337.584L322.444 328.762L317.015 315.861L311.587 305.674L282.571 291.502L287.071 362.856H352.958Z" fill="#CCCCCC" stroke="#3C3C3C" stroke-linecap="round" stroke-linejoin="round"/>
<path d="M49.2569 362.77H85.5347L86.1899 341.656L82.7969 329.441V296.852L74.6537 295.495L67.8599 302.96L57.0023 309.075L33.4697 362.856H49.2569V362.77Z" fill="#CCCCCC" stroke="#3C3C3C" stroke-linecap="round" stroke-linejoin="round"/>
<path d="M61.8071 327.421L62.6027 324.035" stroke="#3C3C3C" stroke-miterlimit="10"/>
<path d="M49.257 362.856L54.093 343.754L58.656 340.852L61.3236 329.48" stroke="#3C3C3C" stroke-miterlimit="10"/>
<path d="M41.4258 363.059L49.1088 341.266" stroke="#3C3C3C" stroke-miterlimit="10"/>
<path d="M74.763 304.512L74.0142 308.053" stroke="#3C3C3C" stroke-miterlimit="10"/>
<path d="M76.5024 296.228L75.0828 302.991" stroke="#3C3C3C" stroke-miterlimit="10"/>
<path d="M85.5348 362.77L86.19 341.656L82.797 329.441V296.852L76.011 340.298L69.8958 342.334L67.86 354.557L66.5964 362.77H85.5348Z" fill="white" stroke="#3C3C3C" stroke-linecap="round" stroke-linejoin="round"/>
<path d="M201.716 338.692C205.575 338.169 209.349 337.141 212.94 335.634C215.807 334.465 218.33 332.586 220.272 330.174C220.498 329.87 220.709 329.55 220.912 329.23L215.553 305.05L204.984 295.831L203.221 287.921L193.081 280.012L189.571 292.321L183.854 300.23L183.417 329.238L188.877 339.674C193.174 339.638 197.463 339.31 201.716 338.692Z" fill="white" stroke="#3C3C3C" stroke-linecap="round" stroke-linejoin="round"/>
<path d="M201.716 338.692L200.639 329.659L203.814 321.103V316.033L203.174 308.108" stroke="#3C3C3C" stroke-miterlimit="10"/>
<path d="M208.151 311.236L209.836 320.783L213.002 321.415L212.371 329.339L213.634 333.466" stroke="#3C3C3C" stroke-miterlimit="10"/>
<path d="M206.981 304.621L207.542 307.804" stroke="#3C3C3C" stroke-miterlimit="10"/>
<path d="M196.521 284.333L199.056 310.323" stroke="#3C3C3C" stroke-miterlimit="10"/>
<path d="M165.555 338.044C172.847 339.153 180.214 339.7 187.59 339.682C189.072 339.682 190.523 339.643 191.95 339.589L191.794 331.43L189.158 327.92V302.866L193.557 298.467L193.112 280.02L187.84 289.692L180.82 295.838L176.42 308.584L169.4 316.937L167.638 325.728L159.292 332.748L155.961 336.297C159.107 336.968 162.305 337.55 165.555 338.044Z" fill="#CCCCCC" stroke="#3C3C3C" stroke-linecap="round" stroke-linejoin="round"/>
<path d="M292.578 362.856L329.433 362.786L281.713 334.191L270.176 306.353L260.668 304.996L252.525 294.138L248.446 298.21L251.16 321.968L240.981 338.941V349.807L236.231 362.021L259.194 362.856H292.578Z" fill="white" stroke="#3C3C3C" stroke-linecap="round" stroke-linejoin="round"/>
<path d="M274.092 362.809L272.353 353.098L275.09 347.365L274.342 336.157L276.588 338.403L291.782 362.809H274.092Z" fill="#CCCCCC" stroke="#3C3C3C" stroke-linecap="round" stroke-linejoin="round"/>
<path d="M274.342 336.157L285.059 341.39L289.286 346.616L301.493 352.849L309.964 358.082L315.167 362.856L291.782 362.809L274.342 336.157Z" fill="white" stroke="#3C3C3C" stroke-linecap="round" stroke-linejoin="round"/>
<path d="M240.981 338.941V349.807L235.864 362.638L255.247 362.887L251.16 339.62L259.311 332.155L248.446 298.21L251.16 321.968L240.981 338.941Z" fill="#CCCCCC" stroke="#3C3C3C" stroke-linecap="round" stroke-linejoin="round"/>
<path d="M260.668 304.996L267.836 320.151L271.003 320.471L273.538 328.076" stroke="#3C3C3C" stroke-miterlimit="10"/>
<path d="M265.481 350.844L266.573 354.385" stroke="#3C3C3C" stroke-miterlimit="10"/>
<path d="M261.183 323.318L263.398 331.882L267.205 338.216L262.766 342.022L264.685 348.254" stroke="#3C3C3C" stroke-miterlimit="10"/>
<path d="M170.617 149.175L154.705 166.577L154.159 134.675L170.001 115.44L170.617 149.175Z" fill="#CCCCCC" stroke="#3C3C3C" stroke-linecap="round" stroke-linejoin="round"/>
<path d="M159.572 218.845L175.843 204.485C177.011 203.472 178.309 202.622 179.704 201.958C181.455 201.127 183.284 200.474 185.164 200.008C187.575 199.421 190.025 199.015 192.496 198.791C195.607 198.504 198.732 198.389 201.856 198.448C209.409 198.548 216.944 199.212 224.398 200.437C230.594 201.462 236.718 202.877 242.736 204.672C248.149 206.287 252.876 208.018 256.955 209.617C261.035 211.216 264.404 212.683 267.134 213.759L246.02 227.448C243.438 226.434 240.232 225.053 236.387 223.548C232.541 222.043 228.056 220.428 222.932 218.868C217.24 217.177 211.445 215.851 205.585 214.898C198.527 213.751 191.393 213.135 184.244 213.057C181.281 213.006 178.317 213.121 175.367 213.4C173.03 213.615 170.713 214.004 168.433 214.562C166.64 215.003 164.897 215.625 163.231 216.419C161.908 217.059 160.677 217.875 159.572 218.845Z" fill="#CCCCCC" stroke="#3C3C3C" stroke-linecap="round" stroke-linejoin="round"/>
<path d="M211.38 336.266L193.019 343.286C194.623 342.689 196.16 341.926 197.605 341.008C198.885 340.192 200.036 339.191 201.022 338.036C201.951 336.943 202.671 335.687 203.143 334.331C203.629 332.888 203.856 331.369 203.814 329.846C203.801 327.189 202.985 324.598 201.474 322.413C199.536 319.843 197.06 317.727 194.22 316.212C190.129 313.977 185.829 312.148 181.381 310.752C176.077 308.966 169.681 307.203 162.154 305.37C151.903 302.983 141.864 299.758 132.14 295.729C123.357 292.13 115.113 287.337 107.64 281.486C100.776 276.124 95.1226 269.373 91.0494 261.674C86.9193 253.493 84.7812 244.452 84.8094 235.287C84.7703 231.564 85.0312 227.845 85.5894 224.164C86.1223 220.626 86.9573 217.139 88.0853 213.743C89.1961 210.416 90.5977 207.192 92.274 204.11C93.963 201.026 95.9178 198.095 98.1161 195.351L110.76 179.494C106.097 185.294 102.51 191.883 100.168 198.947C98.962 202.537 98.0695 206.224 97.4999 209.968C96.9219 213.867 96.6611 217.806 96.7199 221.746C96.7137 231.462 98.9985 241.042 103.389 249.709C107.709 257.87 113.699 265.03 120.97 270.722C128.365 276.674 137.155 281.642 146.929 285.8C157.218 290.078 167.841 293.506 178.69 296.049C186.685 297.999 193.417 299.879 199.025 301.774C203.733 303.27 208.281 305.227 212.605 307.616C216.099 309.652 218.603 311.805 220.256 314.176C221.868 316.486 222.741 319.23 222.76 322.046C222.813 323.659 222.575 325.268 222.058 326.797C221.561 328.223 220.805 329.545 219.827 330.697C218.785 331.91 217.568 332.961 216.216 333.817C214.695 334.801 213.074 335.622 211.38 336.266Z" fill="#CCCCCC" stroke="#3C3C3C" stroke-linecap="round" stroke-linejoin="round"/>
<path d="M120.97 270.722C128.365 276.674 137.155 281.642 146.929 285.8C157.218 290.078 167.841 293.506 178.69 296.049C186.685 297.999 193.417 299.879 199.025 301.774C203.733 303.27 208.281 305.227 212.605 307.616C216.099 309.652 218.603 311.805 220.256 314.176C221.868 316.486 222.741 319.23 222.76 322.046C222.889 324.969 222.002 327.847 220.249 330.19C218.307 332.601 215.784 334.48 212.917 335.65C209.333 337.155 205.567 338.183 201.716 338.707C197.038 339.384 192.317 339.715 187.59 339.698C180.214 339.716 172.847 339.168 165.555 338.06C158.552 336.998 151.621 335.511 144.799 333.606C138.169 331.757 131.859 329.62 125.978 327.366C120.097 325.112 114.637 322.686 109.715 320.346L99.7464 362.7H278.905C284.487 356.482 288.855 349.272 291.782 341.445C294.85 333.105 296.275 324.251 295.979 315.37C295.714 305.877 294.271 297.43 291.439 289.856C288.622 282.285 284.236 275.395 278.569 269.638C272.743 263.663 265.309 258.398 256.058 253.703C246.808 249.007 235.669 244.85 222.518 241.098C214.053 238.633 206.651 236.267 200.312 234C194.9 232.127 189.62 229.891 184.509 227.308C180.297 225.1 177.138 222.908 175.032 220.662C172.926 218.416 171.85 216.13 171.803 213.728C171.743 211.763 172.167 209.813 173.035 208.049C174.118 205.999 175.735 204.28 177.715 203.073C180.56 201.358 183.696 200.182 186.966 199.602C191.894 198.68 196.907 198.29 201.919 198.44C209.472 198.54 217.007 199.205 224.461 200.429C230.656 201.455 236.781 202.869 242.798 204.664C248.212 206.279 252.938 208.01 257.018 209.609C261.097 211.208 264.467 212.675 267.197 213.751L278.803 161.491C275.153 159.931 271.229 158.371 266.932 156.889C262.634 155.407 257.954 154.019 252.814 152.763C247.673 151.507 242.057 150.423 235.88 149.479C229.702 148.535 222.94 147.865 215.53 147.428L214.851 116.524L170.04 115.44L170.656 149.175C159.759 150.679 149.126 153.701 139.066 158.153C130.405 161.98 122.498 167.327 115.721 173.94C109.52 180.063 104.645 187.396 101.4 195.484C98.1263 203.844 96.5359 212.769 96.72 221.746C96.7138 231.462 98.9986 241.042 103.389 249.709C107.709 257.87 113.699 265.03 120.97 270.722Z" fill="white" stroke="#3C3C3C" stroke-linecap="round" stroke-linejoin="round"/>
<path d="M99.7464 362.7L109.715 320.323L96.9462 328.31L88.8186 362.7H99.7464Z" fill="#CCCCCC" stroke="#3C3C3C" stroke-linecap="round" stroke-linejoin="round"/>
<path d="M315.237 352.474C314.451 352.326 313.639 352.485 312.967 352.919L316.462 355.017C316.555 354.77 316.597 354.507 316.585 354.243C316.573 353.98 316.508 353.721 316.394 353.483C316.279 353.246 316.118 353.034 315.919 352.86C315.72 352.687 315.488 352.555 315.237 352.474Z" fill="#3C3C3C"/>
<path d="M316.22 324.862C316.22 324.862 316.688 322.897 316.703 322.772C316.859 321.298 316.29 318.349 314.769 317.671C314.513 317.566 314.238 317.516 313.962 317.524C313.685 317.533 313.414 317.6 313.165 317.721C312.916 317.841 312.695 318.013 312.518 318.225C312.34 318.437 312.209 318.684 312.133 318.95C311.766 320.065 312.32 321.399 312.952 322.312C313.7 323.388 316.22 324.854 316.22 324.862Z" fill="#3C3C3C"/>
<path d="M339.347 336.859C340.298 335.712 341.445 332.959 340.548 331.539C340.394 331.31 340.192 331.115 339.957 330.969C339.722 330.823 339.459 330.729 339.185 330.692C338.911 330.655 338.632 330.677 338.367 330.756C338.101 330.834 337.856 330.968 337.646 331.149C337.225 331.574 336.901 332.086 336.699 332.649C336.497 333.213 336.421 333.813 336.476 334.409C336.476 335.712 337.795 338.309 337.802 338.309C337.81 338.309 339.3 336.96 339.347 336.859Z" fill="#3C3C3C"/>
<path d="M307.211 347.701C308.312 348.404 309.518 348.931 310.783 349.261C310.682 349.838 310.58 350.415 310.456 350.969C310.456 351.109 310.385 351.25 310.354 351.398L311.087 351.835C311.134 351.608 311.181 351.374 311.236 351.148C311.415 350.236 311.563 349.307 311.68 348.371C312.932 348.833 314.247 349.096 315.58 349.151C316.183 349.136 316.774 348.988 317.313 348.718C317.853 348.448 318.326 348.064 318.7 347.591C318.85 347.358 318.949 347.095 318.99 346.82C319.032 346.546 319.016 346.266 318.942 345.998C318.869 345.73 318.74 345.481 318.564 345.267C318.387 345.052 318.168 344.877 317.92 344.752C316.415 344.042 313.81 345.532 312.788 346.616C312.725 346.687 312.086 347.545 311.743 348.028C311.813 347.459 311.883 346.897 311.938 346.32C312.086 344.666 312.187 342.982 312.289 341.305C312.289 340.798 312.359 340.283 312.398 339.745C312.616 339.823 315.175 340.681 316.423 340.525C317.522 340.408 318.903 339.955 319.543 338.965C319.692 338.731 319.791 338.469 319.833 338.195C319.874 337.922 319.858 337.642 319.784 337.375C319.711 337.108 319.582 336.859 319.406 336.645C319.23 336.431 319.01 336.257 318.763 336.133C317.257 335.423 314.652 336.913 313.63 337.997C313.56 338.083 312.632 339.323 312.413 339.643C312.491 338.52 312.585 337.397 312.718 336.289C312.885 334.8 313.146 333.323 313.498 331.867C313.599 331.867 316.274 332.81 317.546 332.647C318.653 332.53 320.026 332.077 320.666 331.087C320.815 330.853 320.914 330.591 320.956 330.317C320.997 330.044 320.981 329.764 320.907 329.497C320.834 329.23 320.705 328.981 320.529 328.767C320.353 328.553 320.134 328.379 319.886 328.255C318.38 327.538 315.775 329.035 314.761 330.119C314.675 330.205 313.685 331.539 313.521 331.789C313.521 331.703 313.56 331.617 313.583 331.531C313.992 330.083 314.527 328.674 315.182 327.319C315.533 326.539 315.916 325.861 316.298 325.19C316.781 325.408 318.989 326.391 320.143 326.399C321.298 326.407 322.67 326.11 323.388 325.174C323.563 324.96 323.692 324.711 323.765 324.444C323.838 324.177 323.854 323.898 323.812 323.624C323.77 323.351 323.671 323.089 323.522 322.856C323.372 322.623 323.175 322.424 322.943 322.273C321.532 321.399 318.778 322.6 317.647 323.567C317.585 323.622 317.015 324.223 316.61 324.667C316.789 324.363 316.969 324.051 317.148 323.762C317.811 322.694 318.482 321.758 319.082 320.923C319.426 320.455 319.745 320.042 320.05 319.652C321.396 319.625 322.73 319.391 324.004 318.958C324.987 318.451 326.11 317.53 326.344 316.376C326.397 316.108 326.393 315.832 326.333 315.565C326.273 315.298 326.158 315.047 325.996 314.827C325.834 314.607 325.628 314.423 325.391 314.287C325.155 314.151 324.892 314.065 324.62 314.036C322.959 313.919 321.071 316.251 320.51 317.624C320.463 317.749 319.917 319.691 319.948 319.691H319.987C319.683 320.057 319.363 320.471 319.028 320.892C318.404 321.711 317.71 322.639 317.023 323.7C316.274 324.836 315.59 326.013 314.972 327.226C314.274 328.583 313.7 330.001 313.256 331.461C313.256 331.461 313.256 331.5 313.256 331.516C313.256 331.024 313.186 329.667 313.17 329.558C312.928 328.091 311.61 325.4 309.956 325.151C309.682 325.118 309.403 325.143 309.139 325.225C308.875 325.306 308.63 325.442 308.422 325.623C308.213 325.805 308.045 326.028 307.928 326.278C307.81 326.529 307.747 326.801 307.741 327.077C307.687 328.255 308.576 329.417 309.426 330.112C310.393 330.892 313.006 331.672 313.217 331.672C312.803 333.168 312.487 334.689 312.273 336.227C312.14 337.124 312.039 338.029 311.953 338.941C311.953 338.52 311.906 338.161 311.899 338.091C311.657 336.625 310.339 333.926 308.685 333.684C308.411 333.65 308.132 333.674 307.868 333.755C307.603 333.836 307.359 333.972 307.151 334.154C306.942 334.336 306.775 334.559 306.659 334.81C306.543 335.061 306.481 335.334 306.478 335.611C306.423 336.781 307.312 337.951 308.162 338.637C309.3 339.342 310.539 339.868 311.836 340.197C311.836 340.54 311.766 340.891 311.743 341.242C311.594 342.919 311.462 344.588 311.275 346.226C311.212 346.804 311.126 347.373 311.041 347.935C311.041 347.56 311.041 347.248 311.041 347.201C310.799 345.735 309.481 343.044 307.827 342.794C307.553 342.76 307.274 342.785 307.01 342.866C306.745 342.946 306.501 343.082 306.293 343.264C306.084 343.446 305.917 343.67 305.801 343.921C305.685 344.172 305.623 344.444 305.62 344.721C305.471 345.844 306.361 346.991 307.211 347.701Z" fill="#3C3C3C"/>
<path d="M350.774 333.879C349.456 332.857 346.593 333.762 345.368 334.604C345.259 334.675 343.73 336.001 343.762 336.016C343.309 336.149 342.826 336.305 342.295 336.484C341.328 336.827 340.236 337.217 339.082 337.724C337.826 338.252 336.604 338.856 335.423 339.534C334.094 340.281 332.833 341.145 331.656 342.116L331.617 342.155C331.874 341.741 332.576 340.595 332.615 340.478C333.224 339.121 333.606 336.141 332.366 335.018C332.156 334.838 331.91 334.705 331.645 334.627C331.38 334.549 331.102 334.528 330.828 334.565C330.554 334.602 330.291 334.696 330.056 334.841C329.821 334.986 329.62 335.179 329.464 335.408C328.77 336.352 328.879 337.795 329.191 338.863C329.558 340.064 331.336 342.108 331.484 342.272C330.308 343.284 329.206 344.379 328.185 345.548C327.577 346.226 326.992 346.921 326.414 347.63C326.633 347.272 326.82 346.944 326.843 346.897C327.452 345.54 327.834 342.56 326.594 341.437C326.384 341.258 326.138 341.125 325.873 341.047C325.608 340.969 325.33 340.947 325.056 340.984C324.782 341.021 324.519 341.115 324.284 341.26C324.049 341.406 323.848 341.599 323.692 341.827C322.998 342.771 323.107 344.222 323.427 345.283C323.988 346.495 324.733 347.613 325.634 348.598L324.979 349.378C323.934 350.704 322.897 352.022 321.859 353.278C321.493 353.722 321.079 354.151 320.728 354.572L321.095 353.933C321.703 352.583 322.085 349.604 320.845 348.473C320.635 348.293 320.39 348.16 320.125 348.082C319.86 348.004 319.581 347.983 319.307 348.02C319.034 348.057 318.771 348.151 318.536 348.296C318.301 348.441 318.099 348.634 317.944 348.863C317.249 349.807 317.359 351.25 317.678 352.318C318.2 353.546 318.916 354.681 319.8 355.68L319.02 356.522L319.706 356.936C320.182 356.444 320.642 355.93 321.103 355.376C321.895 356.441 322.848 357.378 323.926 358.153C324.438 358.465 325.011 358.662 325.607 358.729C326.202 358.797 326.805 358.733 327.374 358.543C327.627 358.433 327.855 358.271 328.042 358.068C328.229 357.864 328.371 357.624 328.458 357.361C328.546 357.099 328.577 356.822 328.55 356.547C328.523 356.272 328.439 356.006 328.302 355.766C327.436 354.338 324.402 354.151 322.998 354.494C322.904 354.494 321.898 354.877 321.344 355.087C321.711 354.65 322.085 354.221 322.444 353.769C323.482 352.474 324.496 351.125 325.51 349.783L326.446 348.566C326.586 348.746 328.255 350.906 329.363 351.452C329.874 351.763 330.446 351.959 331.04 352.026C331.634 352.094 332.235 352.031 332.803 351.842C333.056 351.733 333.284 351.571 333.471 351.367C333.657 351.164 333.799 350.923 333.887 350.661C333.974 350.399 334.006 350.122 333.979 349.847C333.952 349.572 333.867 349.306 333.731 349.066C332.873 347.638 329.878 347.443 328.427 347.786C328.318 347.786 326.867 348.34 326.508 348.488C327.194 347.591 327.889 346.71 328.614 345.86C329.58 344.709 330.622 343.625 331.734 342.615C331.796 342.701 333.52 344.955 334.659 345.524C335.642 346.039 337.038 346.421 338.099 345.914C338.353 345.806 338.581 345.644 338.769 345.441C338.957 345.238 339.099 344.997 339.188 344.735C339.276 344.473 339.308 344.195 339.282 343.92C339.255 343.645 339.171 343.378 339.035 343.138C338.169 341.71 335.174 341.523 333.731 341.858C333.614 341.858 332.054 342.451 331.773 342.576L331.968 342.389C333.107 341.406 334.331 340.527 335.626 339.76C336.336 339.323 337.038 338.98 337.732 338.606C338.013 339.05 339.292 341.086 340.275 341.726C341.258 342.365 342.545 342.872 343.652 342.506C343.916 342.424 344.16 342.288 344.368 342.106C344.577 341.924 344.744 341.701 344.86 341.45C344.976 341.199 345.039 340.927 345.043 340.651C345.047 340.374 344.993 340.1 344.885 339.846C344.183 338.333 341.227 337.818 339.752 337.997C339.667 337.997 338.863 338.2 338.278 338.348C338.598 338.192 338.918 338.029 339.222 337.888C340.369 337.358 341.445 336.944 342.404 336.586L343.918 336.063C345.054 336.779 346.293 337.318 347.591 337.662C348.181 337.769 348.787 337.745 349.366 337.593C349.946 337.441 350.485 337.163 350.945 336.781C351.138 336.585 351.287 336.352 351.383 336.095C351.479 335.839 351.521 335.565 351.504 335.292C351.488 335.018 351.415 334.751 351.289 334.508C351.163 334.264 350.988 334.05 350.774 333.879Z" fill="#3C3C3C"/>
<path d="M311.002 362.825L311.899 363.379L312.452 362.973L312.663 362.817L311.002 362.825Z" fill="#3C3C3C"/>
<path d="M52.5799 311.22C52.3483 311.371 52.1509 311.568 52.0005 311.8C51.85 312.031 51.7499 312.292 51.7065 312.565C51.6631 312.837 51.6775 313.116 51.7486 313.383C51.8198 313.65 51.9462 313.899 52.1197 314.114C52.6772 314.759 53.4567 315.171 54.3037 315.268L55.9807 311.438C54.8029 310.908 53.4457 310.658 52.5799 311.22Z" fill="#3C3C3C"/>
<path d="M60.3408 306.189C59.8133 306.584 59.4385 307.149 59.28 307.788L62.2206 306.142C61.931 305.984 61.6046 305.904 61.2744 305.912C60.9443 305.921 60.6222 306.016 60.3408 306.189Z" fill="#3C3C3C"/>
<path d="M60.84 278.312C61.8384 279.154 64.6542 279.919 64.6542 279.919C64.6542 279.919 64.5996 277.906 64.5762 277.781C64.3422 276.315 63.0162 273.616 61.386 273.359C61.1114 273.322 60.8322 273.345 60.5669 273.424C60.3015 273.504 60.056 273.638 59.8467 273.82C59.6373 274.001 59.4688 274.225 59.3523 274.476C59.2358 274.727 59.1739 275.001 59.1708 275.278C59.1396 276.448 60.06 277.594 60.84 278.312Z" fill="#3C3C3C"/>
<path d="M40.3026 287.157C40.3026 287.157 39.1404 285.511 39.0546 285.418C38.0562 284.326 35.4666 282.797 33.9534 283.491C33.7058 283.614 33.4868 283.788 33.3108 284.001C33.1349 284.214 33.0059 284.462 32.9323 284.728C32.8587 284.995 32.8421 285.274 32.8837 285.547C32.9252 285.821 33.0239 286.082 33.1734 286.315C33.7662 287.329 35.1312 287.797 36.2388 287.929C37.5258 288.077 40.3026 287.165 40.3026 287.157Z" fill="#3C3C3C"/>
<path d="M38.8363 280.933C38.9143 281.401 39.0001 281.9 39.1015 282.446C39.3043 283.452 39.5383 284.583 39.8815 285.8C40.229 287.124 40.6561 288.427 41.1607 289.7C41.7176 291.119 42.3988 292.487 43.1965 293.787V293.834C42.8299 293.522 41.7613 292.664 41.6365 292.609C40.3807 291.829 37.4791 291.049 36.1765 292.094C35.9699 292.279 35.8046 292.505 35.6914 292.757C35.5783 293.01 35.5198 293.284 35.5198 293.561C35.5198 293.838 35.5783 294.111 35.6914 294.364C35.8046 294.617 35.9699 294.843 36.1765 295.027C37.0189 295.846 38.4619 295.94 39.5617 295.807C40.8019 295.62 43.0717 294.13 43.2511 294.013C44.1016 295.314 45.0343 296.559 46.0435 297.742C46.6285 298.428 47.2369 299.107 47.8609 299.777L47.1901 299.247C45.9343 298.467 43.0327 297.687 41.7301 298.74C41.5246 298.925 41.3603 299.151 41.2478 299.404C41.1354 299.656 41.0773 299.93 41.0773 300.206C41.0773 300.483 41.1354 300.756 41.2478 301.009C41.3603 301.262 41.5246 301.488 41.7301 301.673C42.2063 302.035 42.756 302.289 43.3408 302.417C43.9255 302.545 44.5311 302.544 45.1153 302.414C46.3942 302.024 47.6066 301.443 48.7111 300.69C48.9529 300.94 49.1869 301.197 49.4287 301.47C50.5909 302.687 51.7687 303.896 52.8607 305.12C53.2507 305.549 53.6407 305.986 53.9917 306.423L53.4067 305.971C52.1509 305.191 49.2493 304.411 47.9467 305.456C47.7412 305.641 47.5769 305.867 47.4644 306.12C47.352 306.372 47.2939 306.646 47.2939 306.922C47.2939 307.199 47.352 307.472 47.4644 307.725C47.5769 307.977 47.7412 308.204 47.9467 308.389C48.7891 309.208 50.2399 309.301 51.3319 309.169C52.5784 308.796 53.7597 308.233 54.8341 307.499C55.2007 307.952 55.5673 308.412 55.9027 308.88C56.1211 309.2 56.3551 309.488 56.5579 309.824V309.871L56.8543 309.2L57.0259 309.098L56.5189 308.412C55.9573 307.671 55.3567 306.946 54.7327 306.236C55.8889 305.595 56.9409 304.783 57.8527 303.826C58.2325 303.362 58.5068 302.821 58.6563 302.24C58.8058 301.66 58.827 301.053 58.7185 300.464C58.6449 300.198 58.516 299.95 58.3404 299.737C58.1647 299.524 57.9461 299.35 57.6988 299.228C57.4516 299.105 57.1812 299.035 56.9053 299.024C56.6294 299.012 56.3542 299.059 56.0977 299.161C54.5377 299.816 53.9605 302.757 54.1009 304.231C54.1009 304.325 54.3271 305.378 54.4597 305.955C54.0775 305.526 53.6797 305.097 53.3131 304.676C52.1665 303.467 50.9731 302.281 49.7875 301.088L48.7111 299.996C48.9061 299.879 51.2461 298.529 51.9715 297.508C52.4001 297.052 52.7192 296.505 52.9044 295.907C53.0896 295.31 53.136 294.678 53.0401 294.06C52.9663 293.794 52.8374 293.546 52.6619 293.333C52.4863 293.12 52.268 292.946 52.0209 292.822C51.7739 292.699 51.5037 292.628 51.2278 292.616C50.9519 292.603 50.6765 292.649 50.4193 292.75C48.8593 293.405 48.2821 296.345 48.4225 297.827C48.4225 297.937 48.7423 299.45 48.8437 299.832C48.0637 299.052 47.2837 298.21 46.5037 297.383C45.5011 296.265 44.5735 295.082 43.7269 293.842C43.8205 293.787 46.2697 292.383 47.0107 291.346C47.3904 290.883 47.6646 290.344 47.8141 289.764C47.9636 289.185 47.9849 288.58 47.8765 287.992C47.8065 287.721 47.6798 287.468 47.5047 287.25C47.3296 287.032 47.1101 286.853 46.8608 286.726C46.6115 286.599 46.338 286.527 46.0586 286.514C45.7792 286.501 45.5002 286.547 45.2401 286.65C43.6801 287.305 43.1029 290.246 43.2433 291.728C43.2433 291.845 43.5943 293.467 43.6723 293.756L43.5163 293.545C42.7019 292.278 41.9998 290.941 41.4181 289.552C41.0905 288.772 40.8175 288.038 40.5679 287.305C41.8204 286.794 42.986 286.091 44.0233 285.223C44.4495 284.804 44.7792 284.298 44.9894 283.739C45.1995 283.179 45.2851 282.581 45.2401 281.986C45.1923 281.715 45.0887 281.458 44.9358 281.23C44.7829 281.002 44.5841 280.808 44.3521 280.661C44.1201 280.515 43.8601 280.418 43.5886 280.377C43.317 280.337 43.04 280.353 42.7753 280.426C41.2153 280.909 40.2637 283.764 40.2325 285.254C40.2325 285.332 40.3105 286.159 40.3729 286.759C40.2715 286.424 40.1545 286.081 40.0531 285.761C39.6865 284.56 39.4291 283.421 39.2107 282.43C39.0859 281.861 38.9845 281.346 38.8987 280.87C39.7681 279.844 40.4733 278.689 40.9891 277.446C41.1786 276.878 41.2412 276.276 41.1724 275.682C41.1037 275.088 40.9053 274.516 40.5913 274.006C40.4269 273.784 40.2175 273.599 39.9766 273.463C39.7358 273.327 39.469 273.243 39.1937 273.217C38.9184 273.192 38.6407 273.224 38.3789 273.313C38.117 273.402 37.8768 273.545 37.6741 273.733C36.4807 274.895 36.9721 277.852 37.6741 279.193C37.7209 279.24 38.8207 280.956 38.8363 280.933Z" fill="#3C3C3C"/>
<path d="M59.4282 286.712C60.567 287.235 63.2814 287.251 63.4998 287.258C63.483 288.823 63.5716 290.386 63.765 291.938C63.8742 292.835 64.0146 293.74 64.1628 294.637C64.0302 294.239 63.9132 293.857 63.8898 293.857C63.2814 292.5 61.3002 290.246 59.6466 290.433C59.3727 290.472 59.11 290.568 58.8756 290.714C58.6411 290.861 58.4402 291.056 58.2857 291.285C58.1313 291.515 58.0268 291.774 57.979 292.046C57.9313 292.319 57.9414 292.598 58.0086 292.867C58.2582 294.013 59.4126 294.887 60.4266 295.355C61.7062 295.739 63.0375 295.924 64.3734 295.901C64.4358 296.244 64.4904 296.587 64.5528 296.93C64.8492 298.592 65.1534 300.238 65.403 301.868C65.4888 302.445 65.5512 303.014 65.6214 303.584L65.3874 302.882C64.7712 301.525 62.79 299.27 61.1364 299.458C60.866 299.497 60.6068 299.592 60.3752 299.737C60.1437 299.882 59.9448 300.073 59.7914 300.299C59.638 300.525 59.5335 300.781 59.4843 301.05C59.4352 301.318 59.4427 301.594 59.5062 301.86C59.7558 303.007 60.9102 303.88 61.9164 304.348C62.7746 304.65 63.6747 304.816 64.584 304.84L66.4014 303.818L67.8366 303.038L71.76 298.74C71.6712 298.707 71.5799 298.681 71.487 298.662C69.849 298.366 67.7196 300.479 67.0176 301.782C67.0176 301.868 66.5808 302.866 66.3702 303.412C66.2922 302.851 66.2142 302.289 66.1128 301.72C65.832 300.082 65.4888 298.436 65.1612 296.782C65.052 296.283 64.9584 295.776 64.8648 295.269C65.091 295.269 67.7898 295.448 68.952 295.004C69.9894 294.606 71.2062 293.81 71.526 292.664C71.6065 292.401 71.631 292.124 71.5978 291.851C71.5647 291.578 71.4746 291.315 71.3335 291.079C71.1923 290.843 71.0032 290.639 70.7784 290.481C70.5536 290.323 70.2981 290.213 70.0284 290.16C68.3904 289.864 66.2688 291.977 65.5668 293.28C65.5122 293.381 64.9428 294.84 64.7868 295.191C64.5762 294.076 64.3734 292.968 64.2174 291.868C63.9968 290.383 63.8744 288.885 63.8508 287.383C63.96 287.383 66.7758 287.57 67.9692 287.118C68.5427 286.939 69.0703 286.637 69.5149 286.232C69.9595 285.828 70.3104 285.332 70.5432 284.778C70.6291 284.515 70.6586 284.238 70.6299 283.963C70.6012 283.688 70.5148 283.422 70.3764 283.183C70.238 282.944 70.0508 282.736 69.8268 282.574C69.6029 282.412 69.3473 282.299 69.0768 282.243C67.4388 281.939 65.3094 284.06 64.6074 285.363C64.5528 285.464 63.9444 287.009 63.8274 287.297C63.8274 287.212 63.8274 287.118 63.8274 287.032C63.8506 285.527 64.002 284.027 64.2798 282.547C64.428 281.728 64.6152 280.987 64.8102 280.207C65.3328 280.293 67.7196 280.667 68.835 280.371C69.9504 280.075 71.175 279.435 71.6508 278.351C71.7642 278.099 71.8235 277.826 71.8248 277.55C71.8261 277.274 71.7694 277 71.6584 276.747C71.5474 276.494 71.3845 276.268 71.1803 276.082C70.9761 275.896 70.7352 275.755 70.473 275.668C68.913 275.192 66.573 277.064 65.6916 278.288C65.6448 278.351 65.2548 279.068 64.974 279.614C65.0676 279.279 65.1612 278.928 65.2548 278.608C65.6214 277.407 66.0348 276.323 66.3858 275.363C66.6042 274.825 66.807 274.342 66.9942 273.889C67.5558 273.702 69.7866 272.953 70.629 272.189C71.4714 271.424 72.2982 270.262 72.189 269.069C72.174 268.792 72.101 268.522 71.9747 268.276C71.8485 268.03 71.6719 267.813 71.4564 267.639C71.2409 267.466 70.9913 267.339 70.7238 267.268C70.4562 267.198 70.1768 267.184 69.9036 267.228C68.2656 267.54 67.0488 270.286 66.8616 271.76C66.8616 271.892 66.8616 273.913 66.8616 273.905C66.6666 274.342 66.4638 274.802 66.2454 275.317C65.8632 276.268 65.4654 277.345 65.0442 278.546C64.6134 279.837 64.2566 281.153 63.9756 282.485C63.6812 283.986 63.5193 285.51 63.492 287.04V287.095C63.3594 286.627 62.9382 285.324 62.8992 285.23C62.283 283.873 60.3018 281.619 58.6482 281.806C58.3745 281.845 58.112 281.941 57.8778 282.087C57.6436 282.234 57.4431 282.429 57.2892 282.659C57.1354 282.888 57.0317 283.148 56.985 283.42C56.9382 283.693 56.9495 283.972 57.018 284.24C57.2676 285.371 58.422 286.26 59.4282 286.712Z" fill="#3C3C3C"/>
<path d="M172.552 304.013C172.278 304.051 172.015 304.147 171.781 304.294C171.547 304.441 171.346 304.636 171.193 304.865C171.039 305.095 170.935 305.354 170.888 305.627C170.842 305.899 170.853 306.179 170.921 306.446C171.116 307.012 171.433 307.529 171.85 307.958C172.266 308.388 172.772 308.722 173.332 308.935C174.099 309.211 174.904 309.369 175.718 309.403L176.413 308.576L176.803 307.445C176.186 306.08 174.205 303.826 172.552 304.013Z" fill="#3C3C3C"/>
<path d="M163.995 315.799C163.763 315.949 163.566 316.147 163.416 316.378C163.265 316.61 163.165 316.87 163.122 317.143C163.078 317.416 163.093 317.695 163.164 317.962C163.235 318.229 163.361 318.477 163.535 318.692C164.237 319.636 165.656 319.94 166.764 319.94C167.489 319.887 168.202 319.724 168.878 319.457L169.33 317.179L169.283 317.132C168.16 316.157 165.415 314.941 163.995 315.799Z" fill="#3C3C3C"/>
<path d="M171.756 310.807C170.485 311.587 170.235 314.098 170.461 315.643L174.197 311.204C173.903 310.861 173.496 310.632 173.049 310.56C172.603 310.487 172.145 310.574 171.756 310.807Z" fill="#3C3C3C"/>
<path d="M160.235 305.23C160.477 305.479 160.711 305.737 160.953 306.01C162.115 307.226 163.293 308.435 164.385 309.66C164.775 310.089 165.165 310.526 165.516 310.963L164.931 310.51C163.675 309.73 160.774 308.95 159.471 309.995C159.266 310.18 159.101 310.407 158.989 310.659C158.876 310.912 158.818 311.185 158.818 311.462C158.818 311.738 158.876 312.012 158.989 312.264C159.101 312.517 159.266 312.743 159.471 312.928C160.313 313.747 161.764 313.841 162.856 313.708C164.103 313.336 165.284 312.773 166.358 312.039C166.725 312.499 167.092 312.952 167.427 313.42C167.645 313.739 167.879 314.028 168.082 314.363L168.698 315.331C168.979 315.814 169.268 316.298 169.541 316.774L170.141 316.064C169.907 315.674 169.666 315.284 169.408 314.87L168.769 313.911C168.566 313.591 168.308 313.271 168.074 312.952C167.513 312.172 166.912 311.485 166.288 310.775C167.444 310.135 168.496 309.322 169.408 308.365C169.788 307.901 170.062 307.36 170.212 306.78C170.361 306.199 170.383 305.593 170.274 305.003C170.205 304.739 170.081 304.491 169.911 304.277C169.74 304.063 169.527 303.887 169.285 303.76C169.043 303.633 168.777 303.558 168.504 303.54C168.231 303.522 167.957 303.56 167.7 303.654C166.14 304.309 165.563 307.25 165.703 308.724C165.703 308.818 165.929 309.871 166.062 310.448C165.68 310.019 165.282 309.59 164.915 309.176C163.769 307.967 162.575 306.774 161.39 305.581L160.313 304.489C160.508 304.372 162.848 303.022 163.574 302C163.954 301.538 164.229 300.999 164.378 300.419C164.528 299.84 164.549 299.235 164.44 298.646C164.366 298.38 164.237 298.133 164.061 297.919C163.886 297.706 163.668 297.532 163.421 297.409C163.174 297.285 162.903 297.215 162.627 297.202C162.351 297.19 162.076 297.235 161.819 297.336C160.259 297.991 159.682 300.932 159.822 302.414C159.822 302.523 160.142 304.036 160.243 304.418C159.463 303.638 158.683 302.796 157.903 301.969C156.901 300.851 155.973 299.668 155.126 298.428C155.22 298.373 157.669 296.969 158.41 295.932C158.79 295.47 159.064 294.93 159.214 294.351C159.363 293.771 159.385 293.166 159.276 292.578C159.202 292.312 159.073 292.064 158.898 291.851C158.722 291.638 158.504 291.464 158.257 291.34C158.01 291.217 157.74 291.146 157.464 291.134C157.188 291.121 156.912 291.167 156.655 291.268C155.095 291.923 154.518 294.863 154.658 296.345C154.658 296.462 155.009 298.085 155.087 298.373L154.931 298.163C154.117 296.895 153.415 295.559 152.833 294.169C152.506 293.389 152.233 292.656 151.983 291.923C153.234 291.411 154.399 290.712 155.438 289.848C156.179 289.013 156.889 287.758 156.663 286.603C156.615 286.333 156.512 286.075 156.359 285.847C156.206 285.619 156.007 285.426 155.775 285.279C155.543 285.132 155.283 285.035 155.012 284.995C154.74 284.954 154.463 284.971 154.198 285.043C152.638 285.527 151.687 288.389 151.655 289.871C151.655 289.949 151.733 290.776 151.796 291.377C151.694 291.041 151.577 290.698 151.476 290.378C151.109 289.177 150.852 288.038 150.634 287.048C150.509 286.478 150.407 285.964 150.322 285.488C151.191 284.461 151.896 283.306 152.412 282.064C152.602 281.496 152.664 280.894 152.595 280.299C152.527 279.705 152.328 279.133 152.014 278.624C151.85 278.401 151.64 278.216 151.4 278.08C151.159 277.944 150.892 277.861 150.617 277.835C150.341 277.809 150.064 277.842 149.802 277.931C149.54 278.02 149.3 278.163 149.097 278.351C147.904 279.513 148.395 282.477 149.097 283.811C149.159 283.928 150.259 285.62 150.275 285.597C150.353 286.065 150.439 286.564 150.54 287.11C150.743 288.116 150.977 289.247 151.32 290.464C151.668 291.789 152.095 293.091 152.599 294.364C153.158 295.786 153.839 297.156 154.635 298.459C154.638 298.472 154.638 298.485 154.635 298.498C154.268 298.186 153.2 297.328 153.114 297.274C151.858 296.494 148.957 295.714 147.654 296.767C147.449 296.951 147.285 297.176 147.172 297.428C147.06 297.68 147.002 297.953 147.002 298.229C147.002 298.505 147.06 298.778 147.172 299.03C147.285 299.282 147.449 299.507 147.654 299.692C148.496 300.518 149.939 300.604 151.039 300.472C152.279 300.284 154.549 298.795 154.729 298.678C155.579 299.979 156.512 301.224 157.521 302.406C158.106 303.092 158.714 303.771 159.338 304.442L158.668 303.911C157.412 303.131 154.51 302.351 153.208 303.404C153.001 303.589 152.836 303.815 152.723 304.067C152.609 304.32 152.551 304.594 152.551 304.871C152.551 305.148 152.609 305.421 152.723 305.674C152.836 305.927 153.001 306.153 153.208 306.337C154.042 307.156 155.493 307.25 156.585 307.078C157.89 306.655 159.122 306.032 160.235 305.23Z" fill="#3C3C3C"/>
<path d="M172.286 282.929C173.285 283.772 176.101 284.536 176.101 284.536C176.101 284.536 176.046 282.524 176.023 282.399C175.789 280.933 174.463 278.234 172.832 277.976C172.558 277.941 172.279 277.964 172.015 278.044C171.75 278.124 171.505 278.259 171.296 278.44C171.087 278.621 170.918 278.845 170.801 279.095C170.684 279.346 170.622 279.619 170.617 279.895C170.555 281.065 171.436 282.212 172.286 282.929Z" fill="#3C3C3C"/>
<path d="M151.718 291.782C151.718 291.782 150.556 290.129 150.47 290.035C149.471 288.943 146.882 287.414 145.369 288.109C145.121 288.231 144.902 288.405 144.726 288.618C144.55 288.832 144.421 289.08 144.347 289.346C144.274 289.613 144.257 289.892 144.299 290.165C144.34 290.438 144.439 290.7 144.589 290.932C145.181 291.946 146.546 292.414 147.654 292.547C148.98 292.695 151.718 291.782 151.718 291.782Z" fill="#3C3C3C"/>
<path d="M170.82 291.33C171.959 291.853 174.673 291.876 174.892 291.876C174.877 293.427 174.965 294.978 175.157 296.517C175.266 297.414 175.406 298.319 175.555 299.224C175.422 298.818 175.305 298.444 175.282 298.444C174.673 297.086 172.692 294.832 171.038 295.019C170.765 295.058 170.502 295.154 170.267 295.301C170.033 295.448 169.832 295.642 169.678 295.871C169.523 296.101 169.419 296.36 169.371 296.633C169.323 296.905 169.333 297.185 169.4 297.453C169.65 298.6 170.804 299.473 171.818 299.941C173.098 300.326 174.429 300.51 175.765 300.487C175.828 300.83 175.882 301.174 175.945 301.517C176.241 303.178 176.545 304.832 176.795 306.454C176.795 306.696 176.849 306.938 176.881 307.18L177.372 305.776C177.107 304.325 176.81 302.866 176.522 301.408C176.42 300.908 176.319 300.401 176.225 299.902C177.289 299.966 178.356 299.942 179.416 299.832L180.788 295.862L181.873 294.918C181.73 294.848 181.577 294.798 181.42 294.77C179.782 294.473 177.661 296.587 176.959 297.89C176.904 297.991 176.335 299.45 176.179 299.801C175.968 298.685 175.765 297.578 175.609 296.478C175.389 294.993 175.266 293.494 175.243 291.993C175.352 291.993 178.168 292.18 179.361 291.728C179.935 291.549 180.462 291.246 180.907 290.842C181.351 290.438 181.702 289.942 181.935 289.388C182.021 289.125 182.051 288.847 182.022 288.572C181.993 288.298 181.907 288.032 181.768 287.793C181.63 287.553 181.443 287.346 181.219 287.184C180.995 287.022 180.739 286.909 180.469 286.853C178.831 286.549 176.701 288.67 175.999 289.973C175.945 290.074 175.336 291.619 175.219 291.907C175.219 291.821 175.219 291.736 175.219 291.642C175.243 290.137 175.394 288.636 175.672 287.157C175.82 286.377 176.007 285.597 176.202 284.817C176.725 284.903 179.111 285.277 180.227 284.981C181.342 284.684 182.567 284.045 183.043 282.961C183.156 282.709 183.215 282.436 183.217 282.16C183.218 281.883 183.161 281.61 183.05 281.357C182.939 281.104 182.776 280.877 182.572 280.691C182.368 280.505 182.127 280.364 181.865 280.277C180.305 279.802 177.965 281.674 177.083 282.898C177.037 282.961 176.647 283.678 176.366 284.224C176.459 283.889 176.553 283.538 176.647 283.218C177.013 282.017 177.427 280.933 177.778 279.973C177.996 279.435 178.199 278.951 178.386 278.499C178.948 278.312 181.178 277.563 182.021 276.799C182.863 276.034 183.69 274.872 183.581 273.679C183.566 273.402 183.493 273.132 183.367 272.886C183.24 272.64 183.064 272.423 182.848 272.249C182.633 272.075 182.383 271.949 182.116 271.878C181.848 271.807 181.569 271.794 181.295 271.838C179.657 272.15 178.441 274.895 178.261 276.37C178.261 276.502 178.222 278.522 178.261 278.515C178.066 278.951 177.863 279.412 177.653 279.926C177.263 280.878 176.834 281.954 176.444 283.156C176.013 284.447 175.656 285.762 175.375 287.095C175.058 288.589 174.873 290.108 174.821 291.634V291.72C174.689 291.252 174.268 289.949 174.229 289.856C173.612 288.499 171.631 286.244 169.978 286.432C169.704 286.47 169.441 286.566 169.207 286.713C168.973 286.86 168.773 287.054 168.619 287.284C168.465 287.514 168.361 287.773 168.314 288.046C168.268 288.318 168.279 288.597 168.347 288.865C168.683 289.988 169.837 290.862 170.82 291.33Z" fill="#3C3C3C"/>
<path d="M289.099 223.205L285.987 219.344L288.787 217.136L290.667 219.484L290.027 220.974L290.558 222.16L289.458 222.947" fill="white"/>
<path d="M289.099 223.205L285.987 219.344L288.787 217.136L290.667 219.484L290.027 220.974L290.558 222.16L289.458 222.947" stroke="#3C3C3C" stroke-linecap="round" stroke-linejoin="round"/>
<path d="M314.34 229.905C314.34 229.905 312.211 228.002 311.415 228.127C310.619 228.251 300.183 229.999 300.183 229.999L290.581 222.16L289.115 223.205L298.303 234.733L308.287 234.109L306.142 245.029L297.055 251.94L311.875 260.793L314.863 251.371L326.664 239.749L322.078 234L314.34 229.905Z" fill="#4D6C40" stroke="#3C3C3C" stroke-linecap="round" stroke-linejoin="round"/>
<path d="M317.382 227.386L315.705 230.911L315.089 230.35L313.911 238.922L322.086 233.969L321.267 232.674L321.454 229.999L317.382 227.386Z" fill="white" stroke="#3C3C3C" stroke-linecap="round" stroke-linejoin="round"/>
<path d="M313.911 238.922L318.693 236.02L314.699 233.212L313.911 238.922Z" fill="white" stroke="#3C3C3C" stroke-linecap="round" stroke-linejoin="round"/>
<path d="M326.82 218.985C326.82 218.985 330.431 214.757 334.105 217.425C337.779 220.093 336.765 222.698 339.386 221.27C342.007 219.843 346.928 216.216 349.892 220.834C352.856 225.451 350.571 230.287 348.707 231.395C346.843 232.502 347.334 230.389 347.373 229.367C347.412 228.345 344.354 227.027 343.676 229.133C342.997 231.239 339.433 234.484 334.909 234.179C330.385 233.875 329.511 228.314 329.612 225.046C329.606 224.065 329.344 223.102 328.853 222.253C328.362 221.404 327.659 220.697 326.812 220.202L326.82 218.985Z" fill="#3C3C3C" stroke="#3C3C3C" stroke-linecap="round" stroke-linejoin="round"/>
<path d="M318.162 218.111C318.162 218.111 315.9 223.15 316.368 226.122C316.836 229.094 316.586 231.379 318.1 231.956C319.613 232.534 324.628 229.499 325.736 227.495C326.843 225.49 328.427 222.596 327.99 219.82C327.553 217.043 322.234 213.002 318.162 218.111Z" fill="white" stroke="#3C3C3C" stroke-linecap="round" stroke-linejoin="round"/>
<path d="M319.02 223.4C318.903 223.79 318.653 224.055 318.458 223.993C318.263 223.93 318.201 223.571 318.318 223.213C318.435 222.854 318.685 222.557 318.88 222.62C319.075 222.682 319.106 223.01 319.02 223.4Z" fill="#3C3C3C"/>
<path d="M322.624 224.897C322.507 225.287 322.249 225.56 322.054 225.498C321.859 225.436 321.797 225.077 321.914 224.718C322.031 224.359 322.288 224.063 322.483 224.117C322.678 224.172 322.741 224.507 322.624 224.897Z" fill="#3C3C3C"/>
<path d="M319.933 224.047C319.933 224.047 320.167 224.219 319.839 224.827C319.511 225.436 318.724 225.217 318.809 225.74C318.895 226.262 319.886 226.52 319.886 226.52" stroke="#3C3C3C" stroke-linecap="round" stroke-linejoin="round"/>
<path d="M318.115 227.425C318.115 227.425 319.371 228.61 320.494 228.322" stroke="#3C3C3C" stroke-linecap="round" stroke-linejoin="round"/>
<path d="M323.809 223.649L321.477 223.057" stroke="#3C3C3C" stroke-linecap="round" stroke-linejoin="round"/>
<path d="M319.636 222.175L318.521 221.177" stroke="#3C3C3C" stroke-linecap="round" stroke-linejoin="round"/>
<path d="M318.162 218.111C318.162 218.111 317.827 218.891 317.437 219.96C318.755 219.274 321.025 218.501 323.099 219.781C325.174 221.06 326.219 224 326.641 225.802C327.522 224.016 328.31 221.902 327.99 219.82C327.553 217.043 322.234 213.002 318.162 218.111Z" fill="#3C3C3C" stroke="#3C3C3C" stroke-linecap="round" stroke-linejoin="round"/>
<path d="M326.102 225.724C326.102 225.724 327.725 224.234 327.662 225.592C327.6 226.949 325.736 227.752 325.322 227.815C324.909 227.877 324.94 227.354 324.94 227.354" fill="white"/>
<path d="M326.102 225.724C326.102 225.724 327.725 224.234 327.662 225.592C327.6 226.949 325.736 227.752 325.322 227.815C324.909 227.877 324.94 227.354 324.94 227.354" stroke="#3C3C3C" stroke-linecap="round" stroke-linejoin="round"/>
<path d="M326.656 239.756L324.16 257.548C324.105 257.927 323.919 258.275 323.634 258.53C323.349 258.785 322.983 258.932 322.6 258.944H322.062C321.647 258.96 321.242 258.816 320.93 258.542C320.618 258.267 320.423 257.884 320.385 257.47L319.41 246.769L326.656 239.756Z" fill="#4D6C40" stroke="#3C3C3C" stroke-linecap="round" stroke-linejoin="round"/>
<path d="M322.14 255.107L314.129 248.04L312.335 249.545L320.026 258.445C320.194 258.627 320.402 258.768 320.633 258.857C320.865 258.947 321.113 258.982 321.36 258.96H321.992C322.234 258.95 322.471 258.886 322.685 258.773C322.9 258.66 323.086 258.5 323.231 258.306C323.376 258.112 323.476 257.888 323.523 257.65C323.571 257.412 323.564 257.167 323.505 256.932" fill="#4D6C40"/>
<path d="M322.14 255.107L314.129 248.04L312.335 249.545L320.026 258.445C320.194 258.627 320.402 258.768 320.633 258.857C320.865 258.947 321.113 258.982 321.36 258.96H321.992C322.234 258.95 322.471 258.886 322.685 258.773C322.9 258.66 323.086 258.5 323.231 258.306C323.376 258.112 323.476 257.888 323.523 257.65C323.571 257.412 323.564 257.167 323.505 256.932" stroke="#3C3C3C" stroke-linecap="round" stroke-linejoin="round"/>
<path d="M314.129 248.032L312.25 245.029L308.022 244.561L308.045 247.081L310.073 248.773L311.36 248.953L312.335 249.538L314.129 248.032Z" fill="white" stroke="#3C3C3C" stroke-linecap="round" stroke-linejoin="round"/>
<path d="M291.494 257.4C291.494 257.4 282.664 268.889 283.148 270.793C283.631 272.696 296.533 292.843 296.533 292.843L298.327 291.658L291.236 269.521L305.487 263.851L291.494 257.4Z" fill="white" stroke="#3C3C3C" stroke-linecap="round" stroke-linejoin="round"/>
<path d="M298.607 261.659L299.653 266.253L304.372 264.443L298.607 261.659Z" fill="#3C3C3C" stroke="#3C3C3C" stroke-miterlimit="10"/>
<path d="M296.533 292.804L294.193 296.704C294.193 296.704 292.328 299.497 292.874 299.668C294.068 300.05 297.157 298.022 298.038 297.398C298.919 296.774 299.863 296.361 300.448 295.948C301.033 295.534 302.203 295.292 300.604 293.81C300.066 293.319 298.358 291.619 298.358 291.619L296.533 292.804Z" fill="white" stroke="#3C3C3C" stroke-linecap="round" stroke-linejoin="round"/>
<path d="M311.111 253.734C307.136 252.149 303.07 250.802 298.935 249.701C291.782 247.759 286.494 246.254 286.595 248.04C286.697 249.826 299.707 278.6 299.707 278.6L301.938 277.891L298.537 262.025C298.537 262.025 303.997 265.847 308.03 263.952C312.062 262.057 313.599 256.932 313.318 255.185" fill="#3C3C3C"/>
<path d="M311.111 253.734C307.136 252.149 303.07 250.802 298.935 249.701C291.782 247.759 286.494 246.254 286.595 248.04C286.697 249.826 299.707 278.6 299.707 278.6L301.938 277.891L298.537 262.025C298.537 262.025 303.997 265.847 308.03 263.952C312.062 262.057 313.599 256.932 313.318 255.185" stroke="#3C3C3C" stroke-linecap="round" stroke-linejoin="round"/>
<path d="M297.414 249.288C291.049 247.564 286.494 246.379 286.595 248.04C286.697 249.826 299.707 278.6 299.707 278.6L301.938 277.891L298.537 262.025C299.699 259.194 298.467 253.243 297.414 249.288Z" fill="white" stroke="#3C3C3C" stroke-linecap="round" stroke-linejoin="round"/>
<path d="M298.537 262.025L292.929 253.89" stroke="#3C3C3C" stroke-linecap="round" stroke-linejoin="round"/>
<path d="M299.707 278.6L297.617 282.539C297.617 282.539 293.397 286.627 294.333 286.837C295.269 287.048 303.202 283.639 303.794 282.828C304.387 282.017 301.938 277.891 301.938 277.891L299.707 278.6Z" fill="white" stroke="#3C3C3C" stroke-linecap="round" stroke-linejoin="round"/>
<path d="M290.004 221.302L309.676 244.725" stroke="#3C3C3C" stroke-miterlimit="10"/>
<path d="M229.476 148.762L287.204 217.838" stroke="#3C3C3C" stroke-miterlimit="10"/>
<path d="M311.36 248.945V362.825" stroke="#3C3C3C" stroke-miterlimit="10"/>
<path d="M123.497 217.3C123.497 217.3 127.647 241.582 123.139 249.28C118.63 256.979 107.32 251.441 107.32 251.441V362.045" stroke="#3C3C3C" stroke-miterlimit="10"/>
<path d="M98.5842 226.387C98.5842 226.387 102.258 225.966 102.539 226.816C102.693 227.512 102.693 228.234 102.539 228.93C102.539 228.93 104.653 231.192 104.653 232.744C104.653 234.296 102.398 235.006 102.398 235.006L101.977 238.672L96.33 238.953L95.6202 234.577C95.6202 234.577 93.4986 226.247 98.5842 226.387Z" fill="white" stroke="#3C3C3C" stroke-linecap="round" stroke-linejoin="round"/>
<path d="M99.7152 232.44L98.1552 230.178C98.6789 229.327 98.9695 228.353 98.9976 227.354C98.9976 225.794 98.8573 222.979 95.6125 222.979C92.3677 222.979 90.2461 225.521 89.5441 231.028C88.8421 236.535 92.0791 239.218 96.7435 238.228C101.408 237.237 99.7152 232.44 99.7152 232.44Z" fill="#3C3C3C" stroke="#3C3C3C" stroke-linecap="round" stroke-linejoin="round"/>
<path d="M99.5748 231.473C99.5748 231.473 97.1724 231.192 97.3128 233.033C97.3499 233.428 97.5061 233.804 97.7607 234.109C98.0154 234.414 98.3566 234.635 98.7392 234.742C99.1219 234.849 99.5281 234.838 99.9042 234.71C100.28 234.581 100.609 234.342 100.846 234.023" fill="white"/>
<path d="M99.5748 231.473C99.5748 231.473 97.1724 231.192 97.3128 233.033C97.3499 233.428 97.5061 233.804 97.7607 234.109C98.0154 234.414 98.3566 234.635 98.7392 234.742C99.1219 234.849 99.5281 234.838 99.9042 234.71C100.28 234.581 100.609 234.342 100.846 234.023" stroke="#3C3C3C" stroke-linecap="round" stroke-linejoin="round"/>
<path d="M96.2286 240.334L91.026 241.8C91.026 241.8 90.6204 242.814 90.012 244.14C89.193 245.942 86.9388 249.6 86.9388 249.6L76.5258 252.572L73.1796 263.359L72.4386 267.821L78.3822 264.841L78.7566 254.436L88.1166 252.993L92.1336 242.853L96.2286 240.334Z" fill="#3C3C3C" stroke="#3C3C3C" stroke-linecap="round" stroke-linejoin="round"/>
<path d="M104.52 238.813C104.52 238.813 100.425 236.98 97.3205 237.401C94.2161 237.822 94.4969 239.382 94.4969 239.382L94.6373 241.496C94.6373 241.496 99.8399 239.944 104.52 238.813Z" fill="#4D6C40" stroke="#3C3C3C" stroke-linecap="round" stroke-linejoin="round"/>
<path d="M90.5345 249.124L93.4595 262.649C93.4818 262.812 93.5425 262.966 93.6365 263.1C93.7305 263.234 93.8551 263.344 94 263.42C94.1449 263.497 94.306 263.537 94.4697 263.539C94.6334 263.54 94.7952 263.503 94.9415 263.429L101.548 260.13L90.5345 249.124Z" fill="#4D6C40" stroke="#3C3C3C" stroke-linecap="round" stroke-linejoin="round"/>
<path d="M97.8822 256.324L96.33 259.428" stroke="#3C3C3C" stroke-linecap="round" stroke-linejoin="round"/>
<path d="M111.571 270.02L120.097 284.123L118.966 303.194L123.061 303.053L127.156 280.309L121.173 264.373L111.571 270.02Z" fill="#3C3C3C" stroke="#3C3C3C" stroke-linecap="round" stroke-linejoin="round"/>
<path d="M94.6295 241.496C94.6295 241.496 90.5345 248.555 90.5345 249.124C90.5345 249.694 106.493 265.075 106.493 265.075L118.638 257.026L111.01 243.766L121.992 232.986L122.834 218.439L120.861 218.299L117.328 228.891L105.628 238.111L94.6295 241.496Z" fill="#4D6C40" stroke="#3C3C3C" stroke-linecap="round" stroke-linejoin="round"/>
<path d="M120.861 218.299L121.001 215.054L124.527 212.371L124.816 213.073V215.194L124.956 216.887L122.834 218.439L120.861 218.299Z" fill="white" stroke="#3C3C3C" stroke-linecap="round" stroke-linejoin="round"/>
<path d="M106.493 265.075C106.493 265.075 109.177 269.591 111.173 271.003C113.17 272.415 119.34 268.039 120.9 266.76C122.46 265.481 128.388 257.868 128.388 257.868L133.895 281.33L137.288 279.919C137.288 279.919 135.299 248.719 134.316 247.845C133.333 246.971 118.076 256.877 118.076 256.877L106.493 265.075Z" fill="#3C3C3C" stroke="#3C3C3C" stroke-linecap="round" stroke-linejoin="round"/>
<path d="M137.28 279.926H142.077C142.927 279.926 145.041 278.655 145.197 279.646C145.353 280.636 141.102 283.312 139.402 284.162C137.769 284.796 136.063 285.223 134.324 285.433L133.895 281.338L137.28 279.926Z" fill="white" stroke="#3C3C3C" stroke-linecap="round" stroke-linejoin="round"/>
<path d="M123.061 303.053L125.463 307.429C125.463 307.429 128.427 308.701 128.427 309.27C128.427 309.839 123.63 309.551 123.201 309.551C122.772 309.551 117.983 304.871 117.983 304.871L118.966 303.17L123.061 303.053Z" fill="white" stroke="#3C3C3C" stroke-linecap="round" stroke-linejoin="round"/>
<path d="M124.527 212.371L170.617 149.175" stroke="#3C3C3C" stroke-miterlimit="10"/>
<path d="M9.35999 362.856H379.08" stroke="#3C3C3C" stroke-linecap="round" stroke-linejoin="round"/>
</svg>
